<svg id="login" xmlns="http://www.w3.org/2000/svg" width="630.84" height="438.909" viewBox="0 0 630.84 438.909">
  <ellipse id="Ellipse_1" data-name="Ellipse 1" cx="125.691" cy="9.546" rx="125.691" ry="9.546" transform="translate(0 419.817)" fill="#e6e6e6"/>
  <path id="Path_1" data-name="Path 1" d="M324.272,279.353c21.874-9.3,49.118-3.409,75.725.682.248-4.954,3.249-10.984.105-14.441-3.819-4.2-3.468-8.612-1.169-13.049,5.877-11.348-2.543-23.423-11.045-33.463a18.829,18.829,0,0,0-15.716-6.6l-15.749,1.125a18.861,18.861,0,0,0-16.748,13.481h0c-3.761,5.114-5.773,10.215-4.506,15.289-5.633,3.849-6.579,8.5-4.048,13.734,2.146,3.3,2.123,6.509-.1,9.63a44.462,44.462,0,0,0-6.611,13.131Z" transform="translate(-228.197 -181.967)" fill="#2f2e41"/>
  <path id="Path_2" data-name="Path 2" d="M859.267,643.633H413.448A14.949,14.949,0,0,1,398.5,628.685h0q242.414-28.173,475.716,0h0a14.949,14.949,0,0,1-14.948,14.948Z" transform="translate(-243.375 -264.204)" fill="#2f2e41"/>
  <path id="Path_3" data-name="Path 3" d="M874.216,551.813,398.5,550.934l55.134-92.769.264-.44V253.274a18.9,18.9,0,0,1,18.9-18.9H797.283a18.9,18.9,0,0,1,18.9,18.9V459.132Z" transform="translate(-243.375 -186.453)" fill="#3f3d56"/>
  <path id="Path_4" data-name="Path 4" d="M489.768,250.957a6.162,6.162,0,0,0-6.155,6.155V443.529a6.162,6.162,0,0,0,6.155,6.155H817.757a6.163,6.163,0,0,0,6.155-6.155V257.112a6.162,6.162,0,0,0-6.155-6.155Z" transform="translate(-260.78 -189.844)" fill="#fff"/>
  <path id="Path_5" data-name="Path 5" d="M488.033,531.718a2.645,2.645,0,0,0-2.4,1.535l-16.988,36.932a2.638,2.638,0,0,0,2.4,3.741H828.3a2.638,2.638,0,0,0,2.359-3.818l-18.466-36.932a2.625,2.625,0,0,0-2.359-1.458Z" transform="translate(-257.67 -247.256)" fill="#2f2e41"/>
  <circle id="Ellipse_2" data-name="Ellipse 2" cx="3.957" cy="3.957" r="3.957" transform="translate(387.707 50.122)" fill="#fff"/>
  <path id="Path_6" data-name="Path 6" d="M649.927,593.619a2.642,2.642,0,0,0-2.547,1.952L643.118,611.4a2.638,2.638,0,0,0,2.547,3.324h81.042a2.637,2.637,0,0,0,2.492-3.5l-5.479-15.828a2.64,2.64,0,0,0-2.493-1.775Z" transform="translate(-293.378 -259.914)" fill="#2f2e41"/>
  <path id="Path_7" data-name="Path 7" d="M626.852,337.135v3.517H264.306l.273-.439v-3.078Z" transform="translate(-54.048 -68.94)" fill="#2f2e41"/>
  <circle id="Ellipse_3" data-name="Ellipse 3" cx="61.553" cy="61.553" r="61.553" transform="translate(501.14 0)" fill="#fd5757"/>
  <path id="Path_8" data-name="Path 8" d="M928.876,275.5h-51a3.521,3.521,0,0,1-3.517-3.517V241.21a3.521,3.521,0,0,1,3.517-3.517h51a3.521,3.521,0,0,1,3.517,3.517v30.776A3.521,3.521,0,0,1,928.876,275.5Zm-51-34.294v30.776h51l0-30.776Z" transform="translate(-340.683 -187.131)" fill="#fff"/>
  <path id="Path_9" data-name="Path 9" d="M922.594,233.977H890.938V219.907c0-10.19,6.657-17.587,15.828-17.587s15.828,7.4,15.828,17.587Zm-28.138-3.517h24.621V219.907c0-8.284-5.062-14.069-12.311-14.069s-12.31,5.786-12.31,14.069Z" transform="translate(-344.073 -179.898)" fill="#fff"/>
  <circle id="Ellipse_4" data-name="Ellipse 4" cx="3.517" cy="3.517" r="3.517" transform="translate(559.176 65.07)" fill="#fff"/>
  <path id="Path_10" data-name="Path 10" d="M790.455,402.708H536.973a4.7,4.7,0,0,1-4.694-4.694V335.135a4.7,4.7,0,0,1,4.694-4.694H790.455a4.7,4.7,0,0,1,4.694,4.694v62.878A4.7,4.7,0,0,1,790.455,402.708ZM536.973,332.319a2.82,2.82,0,0,0-2.816,2.816v62.878a2.819,2.819,0,0,0,2.816,2.816H790.455a2.82,2.82,0,0,0,2.816-2.816V335.135a2.82,2.82,0,0,0-2.816-2.816Z" transform="translate(-270.732 -206.097)" fill="#e6e6e6"/>
  <circle id="Ellipse_5" data-name="Ellipse 5" cx="19.121" cy="19.121" r="19.121" transform="translate(286.506 138.943)" fill="#e6e6e6"/>
  <path id="Path_11" data-name="Path 11" d="M642.384,356.8a3.187,3.187,0,1,0,0,6.374H792.622a3.187,3.187,0,0,0,0-6.374Z" transform="translate(-292.595 -211.488)" fill="#e6e6e6"/>
  <path id="Path_12" data-name="Path 12" d="M642.384,380.842a3.187,3.187,0,1,0,0,6.374h64.648a3.187,3.187,0,1,0,0-6.374Z" transform="translate(-292.595 -216.404)" fill="#e6e6e6"/>
  <path id="Path_13" data-name="Path 13" d="M454.825,375.44l-46.858,24.912-.593-20.76c15.294-2.553,29.845-7,43.3-14.235l4.9-12.108a8.208,8.208,0,0,1,13.95-2.13h0a8.208,8.208,0,0,1-.723,11.192Z" transform="translate(-245.19 -209.712)" fill="#ffb8b8"/>
  <path id="Path_14" data-name="Path 14" d="M323.015,555.192h0a9.207,9.207,0,0,1,1.169-7.448l10.293-15.8a17.988,17.988,0,0,1,23.336-6.157h0c-4.326,7.364-3.723,13.823,1.494,19.437a93.576,93.576,0,0,0-22.223,15.15,9.207,9.207,0,0,1-14.069-5.185Z" transform="translate(-227.873 -245.632)" fill="#2f2e41"/>
  <path id="Path_15" data-name="Path 15" d="M447.506,519.515h0a17.663,17.663,0,0,1-15.012,8.575l-68.382.518-2.966-17.2,30.25-8.9-25.505-19.574,27.877-32.623L444.4,497.506A17.663,17.663,0,0,1,447.506,519.515Z" transform="translate(-235.737 -230.61)" fill="#2f2e41"/>
  <path id="Path_16" data-name="Path 16" d="M343.611,624.954H327.6c-14.379-98.562-29.015-197.4,14.235-234.29l51.01,8.3-6.525,43.3L357.845,474.89Z" transform="translate(-225.912 -218.412)" fill="#2f2e41"/>
  <path id="Path_17" data-name="Path 17" d="M360.664,705.962h0a9.207,9.207,0,0,1-7.449-1.168l-17.389-2.337a17.988,17.988,0,0,1-6.158-23.336h0c7.364,4.326,13.824,3.722,19.437-1.5,3.966,8.009,10.5,7.52,16.743,14.267a9.207,9.207,0,0,1-5.185,14.069Z" transform="translate(-228.889 -277.092)" fill="#2f2e41"/>
  <path id="Path_18" data-name="Path 18" d="M391.549,297.382l-29.657-7.118c4.926-10.082,5.331-21.3,2.966-33.216l20.167-.593C385.655,271.271,387.567,285.114,391.549,297.382Z" transform="translate(-235.889 -190.968)" fill="#ffb8b8"/>
  <path id="Path_19" data-name="Path 19" d="M395.144,396.091c-21.589,14.711-36.844.5-48.484-21.418,1.618-13.414-1-29.466-5.852-46.908a31.93,31.93,0,0,1,19.495-38.5h0l25.505,10.677c21.657,17.653,25.919,36.774,17.794,56.941Z" transform="translate(-231.334 -197.676)" fill="#fd5757"/>
  <path id="Path_20" data-name="Path 20" d="M317.64,320.291l-23.725,12.456,42.113,24.912,5.86,14.454a7.666,7.666,0,0,1-4.605,10.128h0a7.666,7.666,0,0,1-10.152-6.8l-.593-10.074-53.525-17.663a12.516,12.516,0,0,1-7.854-7.646h0a12.516,12.516,0,0,1,4.7-14.56L312.9,295.972Z" transform="translate(-215.957 -199.049)" fill="#ffb8b8"/>
  <path id="Path_21" data-name="Path 21" d="M352.913,321.053c-9.9-4.336-18.893.374-30.25,4.152l-1.779-31.436c11.277-6.011,22.029-7.631,32.03-2.966Z" transform="translate(-227.504 -197.439)" fill="#fd5757"/>
  <circle id="Ellipse_6" data-name="Ellipse 6" cx="18.935" cy="18.935" r="18.935" transform="translate(118.311 43.189)" fill="#ffb8b8"/>
  <path id="Path_22" data-name="Path 22" d="M393.662,244.857c-18.747,1.836-33.032-1.23-42.162-9.96v-7.03h40.571Z" transform="translate(-233.764 -185.122)" fill="#2f2e41"/>
</svg>
