<svg xmlns="http://www.w3.org/2000/svg" width="1366" height="947.718" viewBox="0 0 1366 947.718">
  <g id="dark_blue_wave_w_bg" data-name="dark blue wave w/ bg" transform="translate(0 -1665)">
    <rect id="Rectangle_32" data-name="Rectangle 32" width="1366" height="765" transform="translate(0 1665)" fill="#2f2e41"/>
    <path id="wave_2" data-name="wave 2" d="M0,128l28.458,21.3c28.458,21.7,85.375,63.7,142.292,80,56.917,15.7,113.833,5.7,170.75,0,56.917-5.3,113.833-5.3,170.75-32C569.167,171,626.083,117,683,122.7,739.917,128,796.833,192,853.75,208s113.833-16,170.75-21.3c56.917-5.7,113.833,16.3,170.75,26.6,56.917,10.7,113.833,10.7,142.292,10.7H1366v96H0Z" transform="translate(1366 2735) rotate(180)" fill="#2f2e41"/>
  </g>
</svg>
