<svg xmlns="http://www.w3.org/2000/svg" width="60.452" height="76.623" viewBox="0 0 60.452 76.623">
  <g id="easy" transform="translate(-52.34 0)">
    <path id="Path_268" data-name="Path 268" d="M228.8,148.49a1.238,1.238,0,0,1,1.2-.942h17.955a4.843,4.843,0,0,0,4.846-4.962,4.936,4.936,0,0,0-4.968-4.735H230.811a12.352,12.352,0,0,0-7.475,2.523v20.271a10.885,10.885,0,0,0,2.371.528Z" transform="translate(-144.581 -116.556)" fill="#fd5757"/>
    <path id="Path_269" data-name="Path 269" d="M154.263,42.87V4.848a4.848,4.848,0,0,0-9.7,0V17.29l5.15,19.281A10.915,10.915,0,0,0,154.263,42.87Z" transform="translate(-77.979 0)" fill="#fd5757"/>
    <path id="Path_270" data-name="Path 270" d="M109.6,64.284a17.655,17.655,0,0,0-12.431,5.2l-3.978,3.979c-7.908,7.9-21.053,4.99-23.838-5.435-7.26-27.173-5.461-20.44-7.477-27.983a4.848,4.848,0,1,0-9.366,2.51C56.378,57,60.5,69.933,60.5,90.427a17.046,17.046,0,0,0,33.386,4.821c2.108-7.131,1.969-6.664,1.987-6.709a24.539,24.539,0,0,1,5.58-8.588L111.89,69.518A3.072,3.072,0,0,0,109.6,64.284Z" transform="translate(0 -30.82)" fill="#fd5757"/>
    <path id="Path_271" data-name="Path 271" d="M236.3,57.577l1.767-6.595a4.089,4.089,0,1,0-7.9-2.116l-2.784,10.392C230.957,57.4,233.782,57.577,236.3,57.577Z" transform="translate(-148.005 -38.753)" fill="#fd5757"/>
  </g>
</svg>
