<svg xmlns="http://www.w3.org/2000/svg" xmlns:xlink="http://www.w3.org/1999/xlink" width="658.022" height="497.24" viewBox="0 0 658.022 497.24">
  <defs>
    <linearGradient id="linear-gradient" x1="0.5" y1="1" x2="0.5" gradientUnits="objectBoundingBox">
      <stop offset="0" stop-color="gray" stop-opacity="0.251"/>
      <stop offset="0.54" stop-color="gray" stop-opacity="0.122"/>
      <stop offset="1" stop-color="gray" stop-opacity="0.102"/>
    </linearGradient>
    <linearGradient id="linear-gradient-2" x1="0.5" x2="0.5" y2="0" xlink:href="#linear-gradient"/>
    <linearGradient id="linear-gradient-3" x1="0.5" x2="0.5" y2="0" xlink:href="#linear-gradient"/>
    <linearGradient id="linear-gradient-4" x1="1.096" x2="1.096" y2="0" xlink:href="#linear-gradient"/>
    <linearGradient id="linear-gradient-5" x1="0.5" x2="0.5" y2="0" xlink:href="#linear-gradient"/>
  </defs>
  <g id="hr" transform="translate(0.013 -0.004)">
    <path id="Path_23" data-name="Path 23" d="M43.44,426.65C53.851,467.224,75.893,502.3,110.729,519.3c72.425,35.333,235.662,17.109,357.51-3.806,63.044-10.822,118.418-40.66,158.668-82.709Z" transform="translate(-36.343 -191.53)" fill="#fd5757" opacity="0.1"/>
    <path id="Path_24" data-name="Path 24" d="M694.69,64.284H627.834a5.292,5.292,0,1,1,0-10.538H639.4a5.561,5.561,0,0,1-5.784-5.269,5.553,5.553,0,0,1,5.784-5.263h-8.254a5.561,5.561,0,0,1-5.784-5.269,5.557,5.557,0,0,1,5.784-5.269h34.894a98.861,98.861,0,0,0-27.219-6.836C543.674,14.693,509.7,22.062,497.7,29.644a140.033,140.033,0,0,1-48.9,19.544C390.09,60.229,280.3,73.515,180.79,44.931c-49.458-14.2-86.214,9.833-108.25,49.92H706.3c-.827-11.66-3.3-22.43-7.849-31.852A6.062,6.062,0,0,1,694.69,64.284Z" transform="translate(-48.612 -20.14)" fill="#fd5757" opacity="0.1"/>
    <path id="Path_25" data-name="Path 25" d="M32.583,280.23a245.2,245.2,0,0,0,2.6,70.788l586.99,19.573a250.528,250.528,0,0,0,40.782-56.682Zm232.146,50.5H253.161a5.289,5.289,0,1,1,0,10.532H186.335a5.289,5.289,0,1,1,0-10.532H197.9a5.292,5.292,0,1,1,0-10.538h-8.265a5.289,5.289,0,1,1,0-10.532h66.855a5.289,5.289,0,1,1,0,10.532h8.236a5.292,5.292,0,1,1,0,10.538Z" transform="translate(-31.16 -129.797)" fill="#fd5757" opacity="0.1"/>
    <path id="Path_26" data-name="Path 26" d="M689.985,149.94,49.136,164.151c-7.808,18.271-12.973,38.925-15.356,60.337H678.753a230.766,230.766,0,0,0,9.312-38.457A166.582,166.582,0,0,0,689.985,149.94ZM163.9,196.506H152.331a5.292,5.292,0,1,1,0,10.538H85.482a5.292,5.292,0,1,1,0-10.538H97.049a5.289,5.289,0,1,1,0-10.532H88.784a5.292,5.292,0,1,1,0-10.538H155.64a5.292,5.292,0,1,1,0,10.538H163.9a5.289,5.289,0,1,1,0,10.532Z" transform="translate(-32.27 -74.864)" fill="#fd5757" opacity="0.1"/>
    <ellipse id="Ellipse_7" data-name="Ellipse 7" cx="43.512" cy="9.769" rx="43.512" ry="9.769" transform="translate(340.726 423.986)" fill="#fd5757" opacity="0.1"/>
    <ellipse id="Ellipse_8" data-name="Ellipse 8" cx="78.498" cy="6.443" rx="78.498" ry="6.443" transform="translate(406.847 458.336)" fill="#fd5757" opacity="0.1"/>
    <ellipse id="Ellipse_9" data-name="Ellipse 9" cx="78.498" cy="9.769" rx="78.498" ry="9.769" transform="translate(91.668 445.241)" fill="#fd5757" opacity="0.1"/>
    <ellipse id="Ellipse_10" data-name="Ellipse 10" cx="59.065" cy="9.769" rx="59.065" ry="9.769" transform="translate(230.787 396.339)" fill="#fd5757" opacity="0.1"/>
    <ellipse id="Ellipse_11" data-name="Ellipse 11" cx="47.283" cy="9.769" rx="47.283" ry="9.769" transform="translate(259.058 477.706)" fill="#fd5757" opacity="0.1"/>
    <path id="Path_27" data-name="Path 27" d="M525.533,244.092c-1.249-8.41-8.89-28.034-8.89-28.034h0q-.2-.868-.451-1.735c-5.419-18.624-12.921-20.243-12.921-20.243L476.4,188.3a2.082,2.082,0,0,1,.578.538,3.733,3.733,0,0,0-.422.064,10.527,10.527,0,0,1-2.354-5.09c-.052-.278-.1-.578-.133-.862a18.9,18.9,0,0,0-1.538-28.416c-.283-.22-.578-.434-.862-.636,1.267-1.348,1.307-3.222.359-5.1-2.117-4.4-6.721-7.178-11.452-8.537a19.415,19.415,0,0,0-11.117-.237,40.16,40.16,0,0,0-5.819,2.7c-3.569,1.781-7.519,3.193-10.185,6.125a2.989,2.989,0,0,0-1.018,2.458,6.634,6.634,0,0,0,1.012,1.787,5.393,5.393,0,0,1,.052,4.477,43.377,43.377,0,0,0-1.66,4.3,4.5,4.5,0,0,0,.9,4.321,19.033,19.033,0,0,0,1.677,1.157,8.8,8.8,0,0,1,1.6,1.8q1.6,2.14,3.181,4.3a44.272,44.272,0,0,1,3.985,6.056,29.509,29.509,0,0,0,2.464,4.627,6.861,6.861,0,0,0,1.058,1.111l-.312-.121a4.818,4.818,0,0,0,3.534,1.44h.162a.972.972,0,0,0,.648-.266v.578c.064,2.065.052,4.263-.093,6.328l-.249-.127a2.169,2.169,0,0,0-2.314.243l-24.737,19.85s-5.379,7.357-4.627,20.058L414.38,252.27s-5.419,16.16-1.249,27.7,6.588,18.138,6.588,18.138,1.666,13.112,4.17,14.182,3.586,1.648,3.586,1.648l.5,3.135h0s.168.307.463.821c1.822,3.17,8.572,14.355,12.493,13.158a50.147,50.147,0,0,1,.636,9.191l3.881,26.056s2.707,7.085,2.539,10.8,3.158,9.005,3.158,9.005a17.207,17.207,0,0,0-1.666,12.117c1.585,6.941,3.586,38.914,3.586,38.914l2.892,7.75-.081,9.086a8.675,8.675,0,0,1-1.793,4.049c-1.874,2.036-1.735,4.39-6.252,7.172s-7.38,3.835-7.38,7.519a9.673,9.673,0,0,1-.139,1.533c-.416,2.707-1.226,4.176,7.079,4.962a21.9,21.9,0,0,0,16.264-5.437s1.434-2.6,8.19-3.655c0,0,2.314-.121,2.435-2.163.046-.706.035-2.053,0-3.54-.11-2.828-.382-6.131-.74-6.293-.451-.2-1.238-3.048-1.51-4.078h1.88s1.735-13.112,0-21.6a35.046,35.046,0,0,1-.168-14.512L473.4,395.5s-2.314-2.475-.5-6.848,0-25.969,0-25.969.671-7.75,2.585-9.566.093-11.354,0-11.851l3.413,11.446s1.5,22.754,4.673,26.872l.914,10.307s6.5,9.485,5.252,14.593,1.336,23.581,1.336,23.581v18.884s-2.921,7.583,1.157,10.307l1.735-.069c-.578.538-1.024,1.348-1.7,2.047-.781.8-1.226,3.864-1.475,6.5-.208,2.227-.278,4.141-.278,4.141a6.819,6.819,0,0,0,5,2.967c3.268.191,14.037,8.381,14.037,8.381s10.636,0,13.39-.578l.162-.04a3.615,3.615,0,0,0,2.076-1.695,4.338,4.338,0,0,0,.5-3.117c-.341-1.625-1.631-3.407-4.488-4.922-7.108-3.748-8.167-7.259-8.167-7.259l-4.668-7h.665a29.961,29.961,0,0,1,4.667-15.749l-.33-36.687s2.082-12.615-1.5-19.463c0,0-.3-7.253,2.1-9.48s-3.187-24.732-3.187-24.732-1.157-12.082-2.516-23.106h0c5.628,5.338,11.464-13.881,12.447-17.3h.145l-.064-.249c.041-.162.064-.243.064-.243h0s-1.249-4.442-.335-3.54,3.169-2.475,3.169-2.475-.336-18.387,3.586-27.652S525.533,244.092,525.533,244.092Zm-16.773,11.7.029-.052c.578,11.226-.11,35.183-.11,35.183s-.775,3.071-1.6,6.686L506.5,274.85h0l-.578-21.441Zm-71.783-7.739s2.834,35.449,0,40.562a26.78,26.78,0,0,0-2.042,7c-.937-2.458-2.921-8.23-2.209-11.29.92-3.956-1.833-14.35-1.833-14.593s-.249-5.784,1.735-10.018.683-6.067.683-6.067S434.976,246.712,436.977,248.054Z" transform="translate(-191.546 -70.384)" fill="url(#linear-gradient)"/>
    <path id="Path_28" data-name="Path 28" d="M456.53,452.518c-2.47,10.856-12.291-5.558-14.529-9.5-.289-.515-.451-.816-.451-.816l1.064-4.991,5.628-2.314a15.72,15.72,0,0,1,2.522,1.643A15.2,15.2,0,0,1,456.53,452.518Z" transform="translate(-204.193 -195.008)" fill="#d38884"/>
    <path id="Path_29" data-name="Path 29" d="M587.382,432.622a.758.758,0,0,1-.064.243,1.229,1.229,0,0,1-.075.26c-.966,3.389-6.692,22.47-12.221,17.172-6.05-5.784-3.112-19.156-3.112-19.156h.041l12.724-1.3,2.522,2.591h0Z" transform="translate(-258.854 -192.875)" fill="#d38884"/>
    <path id="Path_30" data-name="Path 30" d="M529.713,527.593l.324,36.438a29.886,29.886,0,0,0-4.581,15.616l-16.449.648c-4.014-2.7-1.157-10.226-1.157-10.226V551.307s-2.539-18.329-1.313-23.407-5.153-14.46-5.153-14.46l-.9-10.232c-3.112-4.089-4.587-26.675-4.587-26.675l-3.337-11.406c.093.492,1.828,10.012,0,11.764s-2.539,9.491-2.539,9.491,1.8,21.446,0,25.779.486,6.8.486,6.8l.33,22.262a34.813,34.813,0,0,0,.162,14.4c1.718,8.427,0,21.447,0,21.447H473.35l.081-9.086-2.857-7.693s-1.967-31.753-3.522-38.63a17.259,17.259,0,0,1,1.631-12.03s-3.268-5.234-3.106-8.919S463.054,490,463.054,490l-3.806-25.86a50.237,50.237,0,0,0-1.886-14.731c-2.209-7.369-5.483-17.028-5.483-17.028l3.7.33,18.647,1.66s45.339-3.048,47.37-.515a8.509,8.509,0,0,1,.856,2.643c2.036,9.144,4.725,37.792,4.725,37.792s5.483,22.343,3.129,24.552-2.065,9.4-2.065,9.4C531.766,515.042,529.713,527.593,529.713,527.593Z" transform="translate(-208.548 -193.946)" fill="#444053"/>
    <path id="Path_31" data-name="Path 31" d="M495.711,693.794c-.127,2.03-2.389,2.152-2.389,2.152-6.628,1.041-8.039,3.621-8.039,3.621a21.289,21.289,0,0,1-15.958,5.4c-8.155-.787-7.363-2.238-6.941-4.928a10.193,10.193,0,0,0,.133-1.515c0-3.684,2.823-4.731,7.241-7.519s4.3-5.1,6.137-7.12,2.03-5.951,2.03-5.951c2.082-3.627,7.363.578,7.363.578.249,1.284,8.1,1.1,8.1,1.1s1.041,4.176,1.579,4.419c.353.162.619,3.436.723,6.247C495.746,691.759,495.757,693.095,495.711,693.794Z" transform="translate(-212.875 -296.854)" fill="#b07473"/>
    <path id="Path_32" data-name="Path 32" d="M495.711,703.879c-.127,2.03-2.389,2.152-2.389,2.152-6.628,1.041-8.039,3.621-8.039,3.621a21.289,21.289,0,0,1-15.958,5.4c-8.155-.786-7.363-2.238-6.941-4.928,3.644.9,10.608,2.163,14.674-.046,5.651-3.065,9.705-5.205,9.705-5.205l8.93-4.494C495.746,701.843,495.757,703.179,495.711,703.879Z" transform="translate(-212.875 -306.939)" opacity="0.1"/>
    <path id="Path_33" data-name="Path 33" d="M581.772,706.427a3.528,3.528,0,0,1-2.036,1.683l-.156.041c-2.7.578-13.141.578-13.141.578s-10.556-8.161-13.748-8.346a6.714,6.714,0,0,1-4.91-2.95s.064-1.9.266-4.106c.249-2.614.682-5.651,1.452-6.449,1.411-1.475,1.735-3.47,4.91-2.209,0,0,4.535-7.993,9.879-1.816l5.529,8.387s1.041,3.47,8.045,7.236c2.8,1.5,4.049,3.274,4.4,4.887A4.309,4.309,0,0,1,581.772,706.427Z" transform="translate(-248.981 -298.561)" fill="#b07473"/>
    <path id="Path_34" data-name="Path 34" d="M581.772,715.77c-.625.526-1.313,1.093-2.036,1.683l-.156.041c-2.7.578-13.141.578-13.141.578s-10.556-8.161-13.748-8.346a6.714,6.714,0,0,1-4.91-2.95s.064-1.9.266-4.106c3.25.972,8.173,2.689,9.491,4.54,2.024,2.817,8.173,6.75,8.173,6.75s11.464-1.1,16.553-1.255A4.31,4.31,0,0,1,581.772,715.77Z" transform="translate(-248.981 -307.904)" opacity="0.1"/>
    <path id="Path_35" data-name="Path 35" d="M507.135,217.536l-15.1,15.958s-18.294-1.348-15.1-6.75c1.625-2.753,1.88-8.514,1.735-13.523-.133-4.829-.63-8.942-.63-8.942s25.657-12.771,23.714-.862a19.6,19.6,0,0,0-.069,6.8C502.779,216.229,507.135,217.536,507.135,217.536Z" transform="translate(-218.955 -95.27)" fill="#d38884"/>
    <path id="Path_36" data-name="Path 36" d="M502.811,203.418a19.6,19.6,0,0,0-.069,6.8,18.832,18.832,0,0,1-13.43,5.6c-3.47,0-7.224-2.851-10.029-4.5-.133-4.835-.162-7.039-.162-7.039S504.777,191.509,502.811,203.418Z" transform="translate(-220.033 -95.27)" opacity="0.1"/>
    <path id="Path_37" data-name="Path 37" d="M501.854,180.392a18.907,18.907,0,1,1-7.114-14.772A18.907,18.907,0,0,1,501.854,180.392Z" transform="translate(-213.674 -79.735)" fill="#d38884"/>
    <path id="Path_38" data-name="Path 38" d="M524.536,436.73c-4.708,11.2-34.992,11.435-34.992,11.435V435.949l-1.834-.121c.792,3.5-1.11,12.03-1.11,12.03C462.666,451.236,456.83,437.6,456.83,437.6l.833-4.668,18.647,1.66s45.339-3.048,47.37-.515A8.509,8.509,0,0,1,524.536,436.73Z" transform="translate(-210.635 -194.177)" opacity="0.1"/>
    <path id="Path_39" data-name="Path 39" d="M489.543,360.111V347.9l-1.834-.116c.792,3.47-1.11,12.03-1.11,12.03-18.011,2.539-25.773-4.552-28.509-8.219a11.19,11.19,0,0,1-1.261-2.036l7.311-41.123,1.735-60.522,2.62-10.619.607-5.1v-.058h.064l1.862.8,11.145,4.818,12.661-9.561.185-.133.63-.48,1.047.839,2.6,2.088,8.346,53.9s14.46,41.5,17.166,58.249c.11.671.2,1.3.266,1.88C526.866,359.827,489.543,360.111,489.543,360.111Z" transform="translate(-210.635 -107.599)" fill="#fd5757"/>
    <circle id="Ellipse_12" data-name="Ellipse 12" cx="1.076" cy="1.076" r="1.076" transform="translate(271.817 130.271)" fill="#67647e"/>
    <circle id="Ellipse_13" data-name="Ellipse 13" cx="1.076" cy="1.076" r="1.076" transform="translate(272.315 140.092)" fill="#67647e"/>
    <circle id="Ellipse_14" data-name="Ellipse 14" cx="1.076" cy="1.076" r="1.076" transform="translate(273.391 155.992)" fill="#67647e"/>
    <circle id="Ellipse_15" data-name="Ellipse 15" cx="1.076" cy="1.076" r="1.076" transform="translate(275.166 173.118)" fill="#67647e"/>
    <circle id="Ellipse_16" data-name="Ellipse 16" cx="1.076" cy="1.076" r="1.076" transform="translate(276.242 189.197)" fill="#67647e"/>
    <circle id="Ellipse_17" data-name="Ellipse 17" cx="1.076" cy="1.076" r="1.076" transform="translate(277.318 206.323)" fill="#67647e"/>
    <circle id="Ellipse_18" data-name="Ellipse 18" cx="1.076" cy="1.076" r="1.076" transform="translate(276.89 223.263)" fill="#67647e"/>
    <path id="Path_40" data-name="Path 40" d="M469.816,317.611s-1.2,15.749-3.412,20.33-3.193,17.432-3.193,17.432l-5.13-.578a11.192,11.192,0,0,1-1.261-2.036l7.311-41.123,1.735-60.522,2.626-10.625.607-5.1.069-.029a2.071,2.071,0,0,1,1.828.029l.243.127q-.11.312-.208.642c-2,6.264-2.747,17.808-2.747,17.808s2.892,21.117,3.193,30.938S469.816,317.611,469.816,317.611Z" transform="translate(-210.631 -110.797)" opacity="0.1"/>
    <path id="Path_41" data-name="Path 41" d="M450.764,436.56a2.954,2.954,0,0,1-.2.382c-1.99,3.36-7.033,5.495-8.566,6.079-.289-.515-.451-.815-.451-.815l1.064-4.991,5.628-2.314A15.719,15.719,0,0,1,450.764,436.56Z" transform="translate(-204.193 -195.008)" opacity="0.1"/>
    <path id="Path_42" data-name="Path 42" d="M425.384,298.81l-4.668,2.782L416.466,320.5s-5.321,16.039-1.232,27.5,6.466,18.017,6.466,18.017,1.637,13.014,4.095,14.078,3.517,1.637,3.517,1.637l.492,3.112s6.663-2.261,9.017-6.246-1.735-13.881-1.735-13.881-3.517-8.433-2.614-12.36-1.8-14.24-1.8-14.46-.243-5.732,1.735-9.948.659-6.015.659-6.015l-1.232-12.03Z" transform="translate(-192.446 -137.63)" fill="#67647e"/>
    <path id="Path_43" data-name="Path 43" d="M552.408,346.911s-12.36,4.662-16.287.578-3.522-23.245-3.522-23.245-3.76-35.357-6.137-41.164-1.157-47.717-1.157-47.717-1.6-5.419-2.99-6.836a1.515,1.515,0,0,0-.295-.237l.48.1,1.677.359,2.6,2.088,8.346,53.9s14.46,41.5,17.166,58.249Z" transform="translate(-238.12 -107.898)" opacity="0.1"/>
    <path id="Path_44" data-name="Path 44" d="M587.893,433.105h-.139c-1.556.2-15.287,1.862-15.345-.995a8.367,8.367,0,0,1,.052-.989l12.724-1.3,2.522,2.591h0c.046.168.081.312.116.428Z" transform="translate(-259.365 -192.866)" opacity="0.1"/>
    <path id="Path_45" data-name="Path 45" d="M574.717,266.07l9.023,4.708s7.519,19.468,8.722,27.814c0,0,5.57,22.36,1.735,31.557s-3.517,27.45-3.517,27.45-2.209,3.355-3.112,2.458.33,3.517.33,3.517-15.425,2.047-15.489-.983,3.54-17.513,3.54-17.513.983-34.454-.411-39.856S574.717,266.07,574.717,266.07Z" transform="translate(-259.365 -123.827)" fill="#67647e"/>
    <path id="Path_46" data-name="Path 46" d="M524.481,329.52s-5.078,12.435-6.715,13.257.33,4.089.33,4.089S527.344,333.939,524.481,329.52Z" transform="translate(-236.052 -150.578)" opacity="0.1"/>
    <path id="Path_47" data-name="Path 47" d="M518.835,254.1c.058-.237-6.056,6-7.692,6.941S517.118,260.978,518.835,254.1Z" transform="translate(-233.438 -118.775)" opacity="0.1"/>
    <path id="Path_48" data-name="Path 48" d="M489.2,327.82s-9.329,6.033-8.1,8.421S489.2,327.82,489.2,327.82Z" transform="translate(-220.82 -149.861)" opacity="0.1"/>
    <path id="Path_49" data-name="Path 49" d="M524.47,480.07a49.94,49.94,0,0,0,20.3,6.362Z" transform="translate(-239.153 -214.052)" opacity="0.1"/>
    <path id="Path_50" data-name="Path 50" d="M491.5,501.3s7.363,9.254,10.723,9.491S491.5,501.3,491.5,501.3Z" transform="translate(-225.252 -223.003)" opacity="0.1"/>
    <path id="Path_51" data-name="Path 51" d="M502.854,564c-.33.162-4.176,8.346-8.1,8.595S502.854,564,502.854,564Z" transform="translate(-226.294 -249.439)" opacity="0.1"/>
    <path id="Path_52" data-name="Path 52" d="M568.33,594.823s7.3-1.637,8.924,3.6C577.254,598.4,576.763,596.767,568.33,594.823Z" transform="translate(-257.645 -262.332)" opacity="0.1"/>
    <path id="Path_53" data-name="Path 53" d="M559.84,646.294s8.843-1.8,10.723.654S559.84,646.294,559.84,646.294Z" transform="translate(-254.066 -283.866)" opacity="0.1"/>
    <path id="Path_54" data-name="Path 54" d="M510.26,654c0,.081-9,1.8-8.676,2.95s9.6.983,9.931-.821A1.735,1.735,0,0,0,510.26,654Z" transform="translate(-229.5 -287.384)" opacity="0.1"/>
    <path id="Path_55" data-name="Path 55" d="M554.75,667.041s14.789-1.8,13.881,1.307S554.75,667.041,554.75,667.041Z" transform="translate(-251.92 -292.663)" opacity="0.1"/>
    <path id="Path_56" data-name="Path 56" d="M420.89,352.44c.081.243,9.74,1.556,11.047,4.668,0,0-9.491-4.425-10.989-4.425" transform="translate(-195.482 -160.242)" opacity="0.1"/>
    <path id="Path_57" data-name="Path 57" d="M438.928,396.16s-8.022,2.539-7.45,6.362S430.663,400.752,438.928,396.16Z" transform="translate(-199.934 -178.675)" opacity="0.1"/>
    <path id="Path_58" data-name="Path 58" d="M437.92,427.388s2.921-4.008,5.7-3.274S437.92,427.388,437.92,427.388Z" transform="translate(-202.662 -190.423)" opacity="0.1"/>
    <path id="Path_59" data-name="Path 59" d="M494.76,165.618a4.552,4.552,0,0,1-.937.7c-2.314,1.348-2.95,3.424-4.049,5.819-1.024,2.192-2.152,4.511-4.216,5.755-2.666,1.608-6.177,1.018-8.948,2.418a6.941,6.941,0,0,0-3.7,6.842,19.74,19.74,0,0,0,.787,3.135,22.356,22.356,0,0,1,.844,6.808,1.156,1.156,0,0,1,0,.2,18.9,18.9,0,1,1,20.243-31.678Z" transform="translate(-213.694 -79.732)" opacity="0.1"/>
    <path id="Path_60" data-name="Path 60" d="M487.387,151.931c-2.076-4.361-6.594-7.126-11.238-8.473a18.874,18.874,0,0,0-10.914-.231,40.034,40.034,0,0,0-5.709,2.678c-3.505,1.77-7.357,3.17-9.995,6.079a3.046,3.046,0,0,0-1,2.441,6.816,6.816,0,0,0,.989,1.77,5.371,5.371,0,0,1,.052,4.448,40.784,40.784,0,0,0-1.631,4.274,4.5,4.5,0,0,0,.879,4.286,16.029,16.029,0,0,0,1.654,1.157,8.706,8.706,0,0,1,1.567,1.781l3.123,4.268a43.289,43.289,0,0,1,3.91,6.009A28.64,28.64,0,0,0,461.493,187a5.234,5.234,0,0,0,4.384,2.342.85.85,0,0,0,.694-.33.914.914,0,0,0,.087-.434,22.2,22.2,0,0,0-.827-6.784,19.578,19.578,0,0,1-.787-3.135,6.969,6.969,0,0,1,3.7-6.842c2.776-1.4,6.287-.81,8.948-2.412,2.071-1.249,3.2-3.569,4.216-5.784,1.116-2.395,1.735-4.471,4.049-5.819S488.538,154.227,487.387,151.931Z" transform="translate(-206.813 -71.736)" fill="#585268"/>
    <path id="Path_61" data-name="Path 61" d="M501.63,693.06s2.892,3.684,2.14,5.784S501.63,693.06,501.63,693.06Z" transform="translate(-229.523 -303.853)" opacity="0.1"/>
    <path id="Path_62" data-name="Path 62" d="M569.28,705.318s.642-4.939,3.216-4.986,2.7-.266,4.668.492,3.812,1.932,3.221,2.105-3.383-2.823-6.252-1.29A20.657,20.657,0,0,0,569.28,705.318Z" transform="translate(-258.046 -306.891)" opacity="0.1"/>
    <path id="Path_63" data-name="Path 63" d="M481.212,247.29l8.1-5.674s-11.845-7-13.257-6.015-2.383,9.833-2.383,9.833Z" transform="translate(-217.735 -110.94)" opacity="0.1"/>
    <path id="Path_64" data-name="Path 64" d="M481.152,246.58l8.1-5.784s-11.845-7-13.257-6.015S473.61,245.1,473.61,245.1Z" transform="translate(-217.71 -110.595)" fill="#e1e7ef"/>
    <path id="Path_65" data-name="Path 65" d="M481.152,246.58l8.1-5.784s-11.845-7-13.257-6.015S473.61,245.1,473.61,245.1Z" transform="translate(-217.71 -110.595)" fill="#fd5757"/>
    <path id="Path_66" data-name="Path 66" d="M457.143,234.674l-.243-.121a2.1,2.1,0,0,0-2.273.237L430.335,254.5s-5.281,7.305-4.546,19.908l14.327,20.3s1.637-6.871,3.6-5.564c0,0,2.782,35.195,0,40.267s-4.008,24.061-4.008,24.061l9.41,1.064s.983-12.852,3.193-17.432,3.412-20.33,3.412-20.33,1.99-22.881,1.66-32.7-3.193-30.938-3.193-30.938S454.991,240.747,457.143,234.674Z" transform="translate(-197.518 -110.442)" fill="#67647e"/>
    <path id="Path_67" data-name="Path 67" d="M514.533,240.667,504.44,236.93s12.852-14.078,14.46-6.27Z" transform="translate(-230.708 -107.903)" opacity="0.1"/>
    <path id="Path_68" data-name="Path 68" d="M514.533,239.817,504.44,236.08s12.852-14.078,14.46-6.27Z" transform="translate(-230.708 -107.544)" fill="#e1e7ef"/>
    <path id="Path_69" data-name="Path 69" d="M514.533,239.817,504.44,236.08s12.852-14.078,14.46-6.27Z" transform="translate(-230.708 -107.544)" fill="#fd5757"/>
    <path id="Path_70" data-name="Path 70" d="M521.32,228.115a.578.578,0,0,1,.416.093Z" transform="translate(-237.825 -107.821)" opacity="0.1"/>
    <path id="Path_71" data-name="Path 71" d="M523,226.423l26.779,5.784s7.369,1.637,12.69,20.134-7.288,41.158-7.288,41.158l-2.782-2.366,1.394,54.015s-12.36,4.662-16.287.578-3.517-23.263-3.517-23.263-3.765-35.351-6.142-41.164-1.157-47.711-1.157-47.711S524.5,226.1,523,226.423Z" transform="translate(-238.533 -107.106)" fill="#67647e"/>
    <path id="Path_72" data-name="Path 72" d="M565.1,285.763c-.376.347-.816,16.692.821,29.133a158.768,158.768,0,0,0,4.627,22.424l-2.429-49.839S566.249,284.7,565.1,285.763Z" transform="translate(-256.137 -132.027)" opacity="0.1"/>
    <path id="Path_73" data-name="Path 73" d="M559.7,261.6c.654.411,3.522,7.2,2.209,9.983S559.7,261.6,559.7,261.6Z" transform="translate(-254.007 -121.942)" opacity="0.1"/>
    <path id="Path_74" data-name="Path 74" d="M497.782,154.3a14.783,14.783,0,0,0-5.888-6.166,14,14,0,0,1,4.413,5.205c1.157,2.314.816,4.627-1.434,5.894s-2.95,3.424-4.049,5.819c-1.024,2.192-2.152,4.511-4.222,5.784-2.661,1.608-6.171,1.012-8.948,2.412a6.987,6.987,0,0,0-3.7,6.848,19.664,19.664,0,0,0,.792,3.129,22.37,22.37,0,0,1,.844,6.808.913.913,0,0,1-.092.434.827.827,0,0,1-.688.33,3.985,3.985,0,0,1-2.019-.376,4.7,4.7,0,0,0,3.47,1.359.682.682,0,0,0,.775-.763,22.191,22.191,0,0,0-.839-6.808,19.006,19.006,0,0,1-.792-3.135,6.969,6.969,0,0,1,3.7-6.842c2.776-1.4,6.287-.81,8.948-2.412,2.071-1.249,3.2-3.569,4.216-5.784,1.116-2.395,1.735-4.471,4.049-5.819S498.939,156.592,497.782,154.3Z" transform="translate(-217.364 -74.101)" opacity="0.1"/>
    <path id="Path_75" data-name="Path 75" d="M718.684,236.622c-7.97-.156-15-5.784-18.988-12.661a12.724,12.724,0,0,1-1.92-5.419,6.254,6.254,0,0,1,.22-1.3,13.442,13.442,0,0,0,.578-1.984,3.465,3.465,0,0,0,0-.81s0,0,0-.046a4.785,4.785,0,0,0-1.735-3.893c-1.064-1-2.4-1.735-3.511-2.73-3.424-3.008-4.465-7.831-4.529-12.424v-.243c.041-1.966.2-3.939.179-5.905a24.822,24.822,0,0,0-.145-3.343,11.047,11.047,0,0,0-3.574-7.392c-5.7-4.627-15.292.191-21.2-4.182-1.434-1.07-2.6-2.649-4.338-3.065a7.308,7.308,0,0,0-3.962.538c-4.349,1.434-9.2,3.32-10.9,7.519-.972,2.412-.7,5.165-1.591,7.606a37.968,37.968,0,0,1-2.487,4.592,7.189,7.189,0,0,0-.925,3.835,4.326,4.326,0,0,0,.283,2.042,5.206,5.206,0,0,0,1.417,2.03,6.744,6.744,0,0,1-.844,1.353c-1.11,1.359-2.817,2.314-3.974,3.667-2.14,2.481-2.059,5.853-1.006,8.768s2.956,5.57,4.268,8.41a4.514,4.514,0,0,1,.434,3.835,11,11,0,0,1-1.92,2.233,7.016,7.016,0,0,0-1.735,3.875c-13.019,2.973-13.031,13.436-13.031,13.436h0l-7.033,17.687s-1.128,2.979-2.452,6.912l-8.323-1.492,5.784,9.682c-1.093,3.945-1.868,7.6-1.614,9.439,0,0-2.585,12.146,2.013,14.269l10.145,4.563a6.011,6.011,0,0,0,1.406.63l.411.185a1.087,1.087,0,0,0,.949,0h.139a1.364,1.364,0,0,0,.578-.087,1.157,1.157,0,0,0,.509-.549.174.174,0,0,1,0-.058l3.036-.879,2.574,3.048c1.157.815,2.314,1.521,3.407,2.157l-3.985,39.573s-.642,52.633-2.585,64.629a33.591,33.591,0,0,0-.451,9.532l-.075.127c.48,3.384,1.735,4.049,1.735,4.049v-.046a.379.379,0,0,0,.075.046,34.066,34.066,0,0,1,2.082-4.465v.868c-.041,4.465-.179,10.717-.642,14.783-.787,6.941,2.013,29.816,2.013,29.816l.966,20.822a19.249,19.249,0,0,1-2.371,10.145c-2.314,4.159-5.269,10.012-5.483,12.609a2.594,2.594,0,0,0,0,.422h0l-4.963,5.969s-1.938,3,2.441,4.2c2.354.654,6.414,0,9.676-.769a6.466,6.466,0,0,0,5.015-6.293,22.268,22.268,0,0,1,4.095-7.86l.816,4.795,5.46,1.353.7-13.141a5.784,5.784,0,0,0,.376-2.314h0c1.076-9.347-2.533-8.508-2.533-8.508a.5.5,0,0,1,.174.324l-.174-.318h0c-2.215-4.373-1.157-11.568-1.157-11.568s2.892-20.822,3.881-26.322c.711-3.887.416-16.611.179-23.714a8.462,8.462,0,0,0-.029-.862c8.468-.11,18.844-.393,26.126-1.1v.856l-1.342,49.192a27,27,0,0,1-1.885,9.15.5.5,0,0,1-.064.168,39.907,39.907,0,0,0-2.666,12.892l-.625,15.616v.434h0c-1.087.416-2.805,1.625-2.851,5.13-.075,5.136,8.977,3.424,8.977,3.424,9.046,0,9.121-9.416,9.121-9.416s.283-8.635.717-14.413-1.365-4.506-1.365-4.506l-.139,16.438v-14.28l.139-2.088V495.8h0v-.445l1.139-16.952s8.334-28.248,9.624-33.668c.92-3.852.538-15.454.237-21.869a5.1,5.1,0,0,0-.046-.85c2.585-.231,4.87-.254,5.784-.254h.422s-.428-45.368-1.51-62.465-2.8-32.742-7.108-37.45c-2.6-2.846-6.229-11.631-8.676-18.138a90.736,90.736,0,0,0,15.946,5.205c13.644,2.857,11.776-8.988,11.776-8.988l-1.382-22.4h.093a114.215,114.215,0,0,0-1.5-17.513,51.531,51.531,0,0,0-3.517-12.724c1.481-.578,2.944-1.2,4.378-1.833,3.707-1.637,7.883-3.956,8.416-7.953h-.179A5.158,5.158,0,0,0,718.684,236.622Zm-84.577,32.389h0c.029,2.314-.058,6.328-.2,10.764l-4.332-5.784,4.344-7.045ZM692.154,280.758Zm1.8,8.751L686.74,287.2a32.392,32.392,0,0,1,4.459-5.518l.625-.578-.226.046.347-.318.208-.046-.33.318.393-.081a12.314,12.314,0,0,0,2.458,4.945c2.591,2.828-.711,3.546-.711,3.546Z" transform="translate(-273.502 -83.794)" fill="url(#linear-gradient-2)"/>
    <path id="Path_76" data-name="Path 76" d="M645.783,715.66l-.844,16.01-5.385-1.348-1.134-6.657Z" transform="translate(-269.174 -301.732)" fill="#a27772"/>
    <path id="Path_77" data-name="Path 77" d="M645.783,715.66l-.844,16.01-5.385-1.348-1.134-6.657Z" transform="translate(-269.174 -301.732)" opacity="0.1"/>
    <path id="Path_78" data-name="Path 78" d="M716.48,692.692l8.213,1.7,6.09-5.379V673.854l.139-2.071v-.064h0v-.44l1.134-16.848s8.219-28.046,9.5-33.43c.9-3.817.526-15.339.226-21.707-.121-2.609-.226-4.355-.226-4.355l-18.132-4.39-.382,13.939-1.324,48.839a27.063,27.063,0,0,1-1.857,9.086l-.064.168a39.747,39.747,0,0,0-2.632,12.794l-.613,15.53v.428Z" transform="translate(-320.108 -260.633)" fill="#cc818c"/>
    <path id="Path_79" data-name="Path 79" d="M741.45,730.142v.428h0v-.44Z" transform="translate(-330.636 -319.482)" opacity="0.1"/>
    <path id="Path_80" data-name="Path 80" d="M716.48,763.528l8.213,1.7,6.09-5.379v-1.29a1.735,1.735,0,0,1-.873,1.388l-.087.052a16.368,16.368,0,0,1-9.219,1.822l-3.2-.272a3,3,0,0,0-.85.208v.428Z" transform="translate(-320.108 -331.468)" opacity="0.1"/>
    <path id="Path_81" data-name="Path 81" d="M727.808,748.67l.087-.046a1.735,1.735,0,0,0,.885-1.5l.133-16.316s1.77-1.267,1.342,4.471-.706,14.309-.706,14.309-.069,9.347-8.994,9.347c0,0-8.924,1.7-8.855-3.4s3.684-5.31,3.684-5.31l3.2.278A16.328,16.328,0,0,0,727.808,748.67Z" transform="translate(-318.092 -319.716)" fill="#b07473"/>
    <path id="Path_82" data-name="Path 82" d="M642.52,693.118c.208,3.684,11.047,1.556,11.047,1.556l7.293-14.159s6.09-4.679,3.042-8.786a6.553,6.553,0,0,1-.445-.7l-.029-.035h0c-.064-.1-.122-.214-.179-.33h0c-2.186-4.338-1.11-11.452-1.11-11.452s2.828-20.683,3.823-26.137c.7-3.852.411-16.49.179-23.557-.093-2.938-.179-4.91-.179-4.91l-17.994-4.818v5.367c-.04,4.436-.179,10.642-.636,14.679-.775,6.865,1.984,29.6,1.984,29.6l.954,20.689a19.162,19.162,0,0,1-2.314,10.07c-2.256,4.13-5.205,9.948-5.408,12.522a2.525,2.525,0,0,0-.029.4Z" transform="translate(-288.925 -264.528)" fill="#cc818c"/>
    <path id="Path_83" data-name="Path 83" d="M642.516,745.048c.208,3.684,11.047,1.556,11.047,1.556l7.293-14.159s6.09-4.679,3.042-8.786a6.553,6.553,0,0,1-.445-.7c-.1,2.146-2.452,7.519-2.452,7.519s-6.021,12.048-7.935,14.807-10.232-.515-10.544-.63a2.541,2.541,0,0,0-.006.393Z" transform="translate(-288.921 -316.459)" opacity="0.1"/>
    <path id="Path_84" data-name="Path 84" d="M659.328,722.286s3.563-.827,2.5,8.45h0a5.974,5.974,0,0,1-2.817,5.3,20.254,20.254,0,0,0-8.473,11.753h0a6.409,6.409,0,0,1-4.945,6.247c-3.216.752-7.224,1.411-9.543.763-4.321-1.2-2.406-4.176-2.406-4.176l4.957-5.882s8.641,3.4,10.55.636,7.935-14.8,7.935-14.8S660.386,723.067,659.328,722.286Z" transform="translate(-285.004 -316.167)" fill="#b07473"/>
    <path id="Path_85" data-name="Path 85" d="M728.2,593.52l-.382,13.939c4.829-.469,8.288-1.122,8.878-2.042,1.278-1.978,5.917-2.811,9.861-3.152-.121-2.609-.226-4.355-.226-4.355Z" transform="translate(-324.889 -261.885)" opacity="0.1"/>
    <path id="Path_86" data-name="Path 86" d="M651.94,608.087a6.616,6.616,0,0,1,1.984-2.395c1.909-1.058,1.7,6.8,1.7,6.8s6.362.058,14.489-.046c-.093-2.938-.179-4.916-.179-4.916L651.94,602.72S651.975,604.953,651.94,608.087Z" transform="translate(-292.897 -265.764)" opacity="0.1"/>
    <path id="Path_87" data-name="Path 87" d="M647.023,519.492s2.128-5.784,4.049-6.813,1.7,6.8,1.7,6.8,46.745.428,49.082-3.187,15.935-3.4,15.935-3.4-.422-45.044-1.487-62.037-2.759-32.511-7.01-37.184c-2.747-3.025-6.657-12.811-9.075-19.335-1.313-3.563-2.186-6.16-2.186-6.16l-44.616,2.545-.364,3.615-4.737,47.381s-.636,52.268-2.551,64.166S647.023,519.492,647.023,519.492Z" transform="translate(-290.033 -175.306)" fill="#444053"/>
    <g id="Group_7" data-name="Group 7" transform="translate(355.168 212.864)" opacity="0.1">
      <path id="Path_88" data-name="Path 88" d="M705.685,516.288c2.314-3.609,15.934-3.4,15.934-3.4s-.422-45.044-1.486-62.037-2.759-32.511-7.01-37.184c-2.759-3.036-6.657-12.811-9.075-19.335-1.1-3-1.9-5.3-2.117-5.963l3.47-.2s.873,2.6,2.192,6.16c2.418,6.524,6.322,16.31,9.069,19.335,4.251,4.673,5.952,20.186,7.01,37.184s1.492,62.037,1.492,62.037-13.6-.208-15.94,3.4c-2,3.083-36.392,3.227-46.375,3.2C675.661,519.457,703.88,519.075,705.685,516.288Z" transform="translate(-652.665 -388.17)"/>
      <path id="Path_89" data-name="Path 89" d="M647.478,603.367c.862-.48,1.29.85,1.5,2.464a33.357,33.357,0,0,0-2.007,4.349s-1.232-.665-1.735-4.049A7.874,7.874,0,0,1,647.478,603.367Z" transform="translate(-645.24 -478.859)"/>
    </g>
    <path id="Path_90" data-name="Path 90" d="M665.744,195.081c-3.089,4.211.035,10.2-3.279,14.292-1.093,1.353-2.776,2.314-3.916,3.644-2.111,2.464-2.03,5.813-.995,8.7s2.892,5.529,4.211,8.352a4.469,4.469,0,0,1,.428,3.806,10.782,10.782,0,0,1-1.9,2.215c-2.128,2.377-2.186,5.68-1.041,8.479s3.332,5.205,5.489,7.577c.85.931,1.926,1.961,3.343,1.932a4.627,4.627,0,0,0,2.1-.688,21.4,21.4,0,0,0,9.74-27.93c-1.793-4.3-4.783-8.415-4.812-12.956,0-3.6,1.851-7.045,2.181-10.631.4-4.361-2.181-11.284-7.444-13.187C670.2,191.489,667.311,192.918,665.744,195.081Z" transform="translate(-294.965 -91.202)" fill="#585268"/>
    <path id="Path_91" data-name="Path 91" d="M665.744,195.081c-3.089,4.211.035,10.2-3.279,14.292-1.093,1.353-2.776,2.314-3.916,3.644-2.111,2.464-2.03,5.813-.995,8.7s2.892,5.529,4.211,8.352a4.469,4.469,0,0,1,.428,3.806,10.782,10.782,0,0,1-1.9,2.215c-2.128,2.377-2.186,5.68-1.041,8.479s3.332,5.205,5.489,7.577c.85.931,1.926,1.961,3.343,1.932a4.627,4.627,0,0,0,2.1-.688,21.4,21.4,0,0,0,9.74-27.93c-1.793-4.3-4.783-8.415-4.812-12.956,0-3.6,1.851-7.045,2.181-10.631.4-4.361-2.181-11.284-7.444-13.187C670.2,191.489,667.311,192.918,665.744,195.081Z" transform="translate(-294.965 -91.202)" opacity="0.1"/>
    <path id="Path_92" data-name="Path 92" d="M706.743,464.55c-6.183.324-12,2.984-17.415,5.992s-10.654,6.414-16.478,8.549" transform="translate(-301.713 -207.509)" opacity="0.1"/>
    <path id="Path_93" data-name="Path 93" d="M703.653,489.74a25.489,25.489,0,0,0-16.05,7.808c-1.5,1.591-2.8,3.372-4.367,4.9a19.4,19.4,0,0,1-8.606,4.876" transform="translate(-302.463 -218.13)" opacity="0.1"/>
    <path id="Path_94" data-name="Path 94" d="M701.488,508.91a28.063,28.063,0,0,0-12.909,7.785c-.949,1.024-1.81,2.117-2.759,3.141-5.119,5.495-12.348,8.41-19.33,11.169" transform="translate(-299.031 -226.212)" opacity="0.1"/>
    <path id="Path_95" data-name="Path 95" d="M708.2,242.842a126.916,126.916,0,0,0,1.272,14.76c.578,3.47,1.388,6.594,2.551,7.976,3.4,4.049-16.571,9.457-16.571,9.457L683.66,265.9s9.347-8.606,4.992-17S708.2,242.842,708.2,242.842Z" transform="translate(-306.27 -113.907)" fill="#cc818c"/>
    <path id="Path_96" data-name="Path 96" d="M658.79,394.33h47.167c-1.313-3.563-2.186-6.16-2.186-6.16l-44.616,2.545Z" transform="translate(-295.785 -175.306)" opacity="0.1"/>
    <path id="Path_97" data-name="Path 97" d="M646.828,344.6h50.429a17.5,17.5,0,0,1,2.019-13.372,29.555,29.555,0,0,1,5.281-6.848l.347-.318,17.606-3.9.949-.208s.145-32.014-11.192-36.409a66.277,66.277,0,0,1-18.132-10.336l-15.576,4.812-11.475-5.784c-3.684,3.962-13.459,2.406-13.459,2.406-16,1.839-16,13.881-16,13.881s9.347,21.811,10.058,21.811S646.828,344.6,646.828,344.6Z" transform="translate(-286.859 -126.428)" fill="#fd5757"/>
    <path id="Path_98" data-name="Path 98" d="M673.593,357.594s-10.284-2.279-13.783-6.264" transform="translate(-296.215 -159.774)" opacity="0.1"/>
    <path id="Path_99" data-name="Path 99" d="M764.6,341.51l-11.926,9.775a20.323,20.323,0,0,0,.393,2.314l.347-.318,17.606-3.9Z" transform="translate(-335.366 -155.633)" opacity="0.1"/>
    <path id="Path_100" data-name="Path 100" d="M717.46,381.351s2.609,1.469,6.605,3.4h6.854a17.5,17.5,0,0,1,2.019-13.372l-12.082-3.91C724.967,371.293,717.46,381.351,717.46,381.351Z" transform="translate(-320.521 -166.578)" opacity="0.1"/>
    <path id="Path_101" data-name="Path 101" d="M634.369,293.76l-7.079,3.823-6.941,17.565s-7.224,19.26-6.518,24.362c0,0-2.545,12.042,1.984,14.165l11.8,5.344a1.1,1.1,0,0,0,1.417-1.515c-1.683-3.187-3.534-8.173-.578-10.914l-3.4-7.079,12.291-20.116,4.107-6.941Z" transform="translate(-276.529 -135.501)" fill="#fd5757"/>
    <path id="Path_102" data-name="Path 102" d="M677.023,351.653c.613,2.5,2.684,6.362,9.538,7.8l7.519,6.16,8,3.626,3.262,1.475,1.382-9.989-3.141-1.735-3.661-2s-8.259-14.963-21.337-8.676A2.892,2.892,0,0,0,677.023,351.653Z" transform="translate(-303.433 -157.852)" opacity="0.1"/>
    <path id="Path_103" data-name="Path 103" d="M677.772,350.207c.613,2.5,2.678,6.362,9.532,7.8l7.519,6.16,8,3.626,3.256,1.475,1.382-9.989-3.141-1.735-3.632-1.984s-8.265-14.963-21.342-8.647a2.892,2.892,0,0,0-1.579,3.291Z" transform="translate(-303.754 -157.257)" fill="#cc818c"/>
    <circle id="Ellipse_19" data-name="Ellipse 19" cx="18.271" cy="18.271" r="18.271" transform="translate(370.484 105.348)" opacity="0.1"/>
    <circle id="Ellipse_20" data-name="Ellipse 20" cx="18.271" cy="18.271" r="18.271" transform="translate(370.484 104.926)" fill="#cc818c"/>
    <path id="Path_104" data-name="Path 104" d="M718.875,287.033l-5.495-10.677s8.039-3.251,8.624-7.016,7.7,4.413,6.166,7.126S718.875,287.033,718.875,287.033Z" transform="translate(-318.801 -124.795)" opacity="0.1"/>
    <path id="Path_105" data-name="Path 105" d="M718.875,285.563l-5.495-10.677s8.039-3.251,8.624-7.016,7.7,4.419,6.166,7.126S718.875,285.563,718.875,285.563Z" transform="translate(-318.801 -124.175)" fill="#fd5757"/>
    <path id="Path_106" data-name="Path 106" d="M629.159,343.968l30.359,40.816s-11.192,6.09-26.606-4.812l-6.657-7.935L607.25,340Z" transform="translate(-274.055 -154.997)" fill="#f6f8fb"/>
    <path id="Path_107" data-name="Path 107" d="M634.281,377.565l2.765-.075s16.889-16.391,21.036-8.1-10.521,16.044-10.521,16.044l-4.459,2.406-5.813,1.735-3.719-4.991Z" transform="translate(-285.152 -166.401)" fill="#cc818c"/>
    <path id="Path_108" data-name="Path 108" d="M635.571,392.818a4.126,4.126,0,0,1,.069,2.857,1.156,1.156,0,0,1-.5.549,1.29,1.29,0,0,1-.578.081,5.813,5.813,0,0,1-3.812-1.886,17.405,17.405,0,0,1-2.47-3.574c-.752-1.313-1.533-2.765-1.267-4.257.3-1.625,1.735-2.753,3.141-3.667,2.8-1.851,2.892.307,3.505,2.689S634.929,390.412,635.571,392.818Z" transform="translate(-282.364 -172.799)" opacity="0.1"/>
    <path id="Path_109" data-name="Path 109" d="M634.84,392.818a4.16,4.16,0,0,1,.069,2.857,1.156,1.156,0,0,1-.5.549,1.3,1.3,0,0,1-.578.081,5.784,5.784,0,0,1-3.812-1.886,17.215,17.215,0,0,1-2.475-3.574c-.752-1.313-1.533-2.765-1.261-4.257.295-1.625,1.735-2.753,3.135-3.667,2.805-1.851,2.892.307,3.511,2.689S634.192,390.412,634.84,392.818Z" transform="translate(-282.054 -172.799)" fill="#fd5757"/>
    <path id="Path_110" data-name="Path 110" d="M623.85,316.2l1.411-2.389-1.232,4.436Z" transform="translate(-263.031 -132.306)" opacity="0.1"/>
    <path id="Path_111" data-name="Path 111" d="M721.19,376.679l3.256,1.475,1.382-9.989-3.141-1.735C724.857,368.917,722.96,373.515,721.19,376.679Z" transform="translate(-322.094 -166.14)" opacity="0.1"/>
    <path id="Path_112" data-name="Path 112" d="M732.87,362.477s-10.515.642-14.98-2.227" transform="translate(-320.702 -163.534)" opacity="0.1"/>
    <g id="Group_8" data-name="Group 8" transform="translate(366.094 146.645)" opacity="0.1">
      <path id="Path_113" data-name="Path 113" d="M738.115,333.408a29.6,29.6,0,0,1,5.281-6.854,14.1,14.1,0,0,1,1.556-.844l16.391-3.366.949-.208s.145-32.013-11.186-36.409a68.088,68.088,0,0,1-17.675-9.954l1.244-.382a66.1,66.1,0,0,0,18.132,10.336c11.336,4.39,11.186,36.409,11.186,36.409h-1.7l-16.773,3.21s-.723.7-.943.9a32.506,32.506,0,0,0-5.362,7.091,17.779,17.779,0,0,0-1.406,13.442h-1.735A17.68,17.68,0,0,1,738.115,333.408Z" transform="translate(-693.348 -274.401)"/>
      <path id="Path_114" data-name="Path 114" d="M664.13,277.92c.272-.04.532-.081.815-.11a29.323,29.323,0,0,0,3.47.283,31.547,31.547,0,0,1-4.286-.174Z" transform="translate(-664.13 -275.421)"/>
      <path id="Path_115" data-name="Path 115" d="M698.136,279.481l-10.376-5.252a5.479,5.479,0,0,0,.578-.549l10.827,5.477Z" transform="translate(-674.093 -273.68)"/>
    </g>
    <path id="Path_116" data-name="Path 116" d="M750.469,340l6.941,8.5,1.417,23.089s1.839,11.753-11.614,8.919-29.023-11.591-29.023-11.591,7.519-10.058,3.4-13.881l19.266,6.235s3.256-.711.706-3.54-3-7.935-3-7.935Z" transform="translate(-320.829 -154.997)" fill="#fd5757"/>
    <path id="Path_117" data-name="Path 117" d="M779.42,382.17l3.823,4.39a5.512,5.512,0,0,1-3.823-4.39Z" transform="translate(-346.644 -172.776)" opacity="0.1"/>
    <path id="Path_118" data-name="Path 118" d="M736.99,360.8l5.952,7.646-2.973.711Z" transform="translate(-310.733 -152.118)" opacity="0.1"/>
    <path id="Path_119" data-name="Path 119" d="M665.361,200.255a6.1,6.1,0,0,1,.636-4.98,39.325,39.325,0,0,0,2.458-4.563c.873-2.418.607-5.153,1.562-7.519,1.683-4.193,6.466-6.067,10.752-7.519a7.229,7.229,0,0,1,3.91-.532c1.735.411,2.863,1.984,4.28,3.042,5.819,4.338,15.281-.44,20.909,4.153,2.152,1.735,3.2,4.575,3.522,7.334a64.737,64.737,0,0,1-.035,8.34c-.092,4.87.821,10.2,4.465,13.424,1.1.972,2.395,1.7,3.47,2.707a4.739,4.739,0,0,1,1.735,3.869,13.418,13.418,0,0,1-.578,1.966c-.723,2.539.359,5.205,1.677,7.519,3.933,6.808,10.868,12.418,18.728,12.574-.526,3.968-4.627,6.27-8.3,7.895-4.627,2.076-9.555,4.112-14.65,3.852s-10.411-3.522-11.3-8.543c-.307-1.735-.266-3.823-1.735-4.725-.9-.549-2.071-.411-3.042-.821-1.405-.578-2.1-2.157-2.562-3.609a32.484,32.484,0,0,1-1.51-9.254c-.064-3.725.428-7.791-1.683-10.856-1.955-2.84-5.425-4.28-7.681-6.889-2.082-2.418-4.344-5.333-7.756-5.784C677.912,200.671,668.149,207.085,665.361,200.255Z" transform="translate(-298.428 -85.444)" opacity="0.1"/>
    <path id="Path_120" data-name="Path 120" d="M665.361,198.785A6.1,6.1,0,0,1,666,193.8a39.324,39.324,0,0,0,2.458-4.563c.873-2.418.607-5.153,1.562-7.519,1.683-4.2,6.466-6.073,10.752-7.519a7.229,7.229,0,0,1,3.91-.532c1.735.411,2.863,1.984,4.28,3.042,5.819,4.338,15.281-.44,20.909,4.153,2.152,1.735,3.2,4.575,3.522,7.34a64.644,64.644,0,0,1-.035,8.335c-.092,4.87.821,10.2,4.465,13.424,1.1.972,2.395,1.7,3.47,2.707a4.739,4.739,0,0,1,1.735,3.869,13.417,13.417,0,0,1-.578,1.967c-.723,2.539.359,5.205,1.677,7.519,3.944,6.784,10.85,12.412,18.711,12.568-.526,3.968-4.627,6.27-8.3,7.9-4.627,2.071-9.555,4.106-14.65,3.846s-10.411-3.522-11.3-8.543c-.307-1.735-.266-3.823-1.735-4.725-.9-.549-2.071-.411-3.042-.821-1.406-.578-2.1-2.157-2.562-3.609a32.449,32.449,0,0,1-1.51-9.254c-.064-3.725.428-7.791-1.683-10.856-1.955-2.84-5.425-4.28-7.681-6.889-2.082-2.418-4.344-5.333-7.756-5.784C677.912,199.2,668.149,205.627,665.361,198.785Z" transform="translate(-298.428 -84.824)" fill="#585268"/>
    <path id="Path_121" data-name="Path 121" d="M685.372,286.095l10.475-8.5s-7.172-3.887-8.028-7.2-6.594,1.573-6.009,4.546S685.372,286.095,685.372,286.095Z" transform="translate(-305.473 -125.181)" opacity="0.1"/>
    <path id="Path_122" data-name="Path 122" d="M686.108,283.889l10.474-8.5s-7.172-3.887-7.993-7.2-6.594,1.573-6.009,4.546S686.108,283.889,686.108,283.889Z" transform="translate(-305.797 -124.253)" fill="#fd5757"/>
    <circle id="Ellipse_21" data-name="Ellipse 21" cx="0.833" cy="0.833" r="0.833" transform="translate(390.363 157.42)" opacity="0.1"/>
    <circle id="Ellipse_22" data-name="Ellipse 22" cx="0.833" cy="0.833" r="0.833" transform="translate(390.363 162.047)" opacity="0.1"/>
    <circle id="Ellipse_23" data-name="Ellipse 23" cx="0.833" cy="0.833" r="0.833" transform="translate(390.363 166.669)" opacity="0.1"/>
    <g id="Group_9" data-name="Group 9" transform="translate(366.763 95.036)" opacity="0.1">
      <path id="Path_123" data-name="Path 123" d="M672.1,191.564c.827-2.273.648-4.824,1.423-7.114a7.775,7.775,0,0,0-.885,1.631c-.96,2.389-.688,5.124-1.567,7.519l-.058.139a13.213,13.213,0,0,0,1.087-2.175Z" transform="translate(-667.7 -184.45)"/>
      <path id="Path_124" data-name="Path 124" d="M735.765,258.1c-4.627,2.071-9.555,4.107-14.65,3.846s-10.411-3.522-11.3-8.537c-.307-1.735-.266-3.829-1.735-4.731-.9-.549-2.071-.411-3.042-.821-1.405-.578-2.1-2.157-2.562-3.609a32.449,32.449,0,0,1-1.509-9.254c-.064-3.719.434-7.785-1.677-10.856-1.961-2.84-5.431-4.274-7.687-6.889-2.082-2.412-4.344-5.333-7.756-5.784-4.679-.636-14.46,5.784-17.224-1.053a5.379,5.379,0,0,1,.179-3.95c-.2.341-.4.682-.578,1.03a6.127,6.127,0,0,0-.63,4.986c2.782,6.825,12.545.411,17.224,1.053,3.413.463,5.674,3.384,7.756,5.784,2.256,2.614,5.726,4.049,7.681,6.894,2.117,3.065,1.619,7.131,1.683,10.85a32.449,32.449,0,0,0,1.51,9.254c.463,1.458,1.157,3.019,2.562,3.609.972.411,2.14.278,3.042.821,1.492.9,1.452,3.013,1.735,4.731.9,5.015,6.212,8.277,11.3,8.537s9.995-1.77,14.65-3.846c3.355-1.492,7.091-3.557,8.1-6.941C741.225,255.42,738.379,256.936,735.765,258.1Z" transform="translate(-665.288 -193.73)"/>
    </g>
    <path id="Path_125" data-name="Path 125" d="M883.064,304.815c-12.244-7.045-16.871-8.78-16.895-8.78l-.255-.179a10.185,10.185,0,0,1-3.083-3.9,8.092,8.092,0,0,1,0-.839.346.346,0,0,0,0,.081c.191-3.731,2.846-7.126,5.362-10.087l6.437-7.571a7.461,7.461,0,0,0,1.66-2.626,6.06,6.06,0,0,0,.173-1.614v-.659c-.035-1.88-.087-3.765-.156-5.645-.058-1.643-.48-3.713-2.123-4.049-.856-.174-1.99.133-2.441-.578a1.405,1.405,0,0,1-.11-.978.333.333,0,0,0,0,.081v-.093a21.8,21.8,0,0,0,.607-3.869,5.276,5.276,0,0,0-.266-1.961c-.949-2.724-4.228-3.846-7.126-4.361s-6.148-.954-7.964-3.222a23.566,23.566,0,0,0-1.585-2.181,6.253,6.253,0,0,0-2.961-1.463,16.773,16.773,0,0,0-10.775.937c-1.4.625-2.805,1.469-4.344,1.377s-2.961-1.2-4.534-1.469c-2.545-.434-4.98,1.434-6.235,3.65a8.924,8.924,0,0,0-1.157,4.3v.254h0a6.293,6.293,0,0,0,1.654,4.4c1.1,1.157,2.73,1.92,3.187,3.418.185.607.139,1.267.307,1.886a1.7,1.7,0,0,0,.069.226l-.081.11a19.087,19.087,0,0,0-4.049,11.764A19.526,19.526,0,0,0,840.1,289.684v.578a8.321,8.321,0,0,1-2.661,6.478L820.1,303.67s-10.457-1.244-14.228,14.037a26.059,26.059,0,0,0-.648,7.75c.139,2.314-.179,6.362-2.892,11.608-4.286,8.4-3.308,27.676,5.46,29.584,8.277,1.8,11.516,1.053,11.857.966v.335c-.139,3.621-1.452,34.819-6.223,38.59-1.319,1.047-1.076,1.735,0,2.227,0,0,0,.2-.029.578-.145,2.314-.879,10.989-4.049,15.917-3.707,5.726-3.32,38.752-3.32,38.752L803.5,483.483s1.556,12.025,0,14.124c-1.394,1.868-3.245,46.352-3.632,56H799.7a4.7,4.7,0,0,0-3.748,2.313c-2.047,3.326-9.219,9.474-9.219,9.474-1.556,2.209-7.311,4.326-10.353,5.321a6.429,6.429,0,0,0-1.157.509,6.171,6.171,0,0,0-2.614,2.753,2.956,2.956,0,0,0-.278,2.314c.775,1.9,16.953,3.245,21.047,1.33,3.216-1.5,15.963-3.47,21.256-4.245a4.361,4.361,0,0,0,3.783-3.783,2.493,2.493,0,0,0-.486-1.891h0c-1.012-1.255-1.527-4.685-1.735-6.941a4.688,4.688,0,0,0,1.191-.706,50.813,50.813,0,0,1,2.892-20.423c3.9-10.307,5.067-29.394,4.095-41.8,0,0,11.886-51.152,21.244-55.924h0c.145.185,4.685,6.009,5.263,24.049.578,18.323,7.207,30.348,7.207,30.348s-2.927,31.111,0,42.754l-3.823,18.364c-.283-.237-.463-.422-.463-.422s.116.509.272,1.324l-.081.393.168.035c.434,2.314,1.076,6.3.81,8.676-.15,1.336-.526,3.169-.781,4.968-.4,2.828-.515,5.57.972,6.171,2.441.983,16.773,2.314,19.2-.833a4.506,4.506,0,0,0,.706-4.714,4.774,4.774,0,0,0-.706-1.2s-3.806-6.218-2.73-10.6a3.227,3.227,0,0,0-.457-2.516,129.312,129.312,0,0,1,3.279-20.567c2.441-9.185,7.583-29.324,3.8-42.563h0q-.214-.781-.486-1.527a57.167,57.167,0,0,1-2.146-22.331,45.512,45.512,0,0,1,0-19.468c2.342-10.688,3.979-21.186,3.979-21.186s1.29-14.124.162-22.783a5.662,5.662,0,0,0-.075-.578l.613-.139s-3.314-14.7-4.482-24.049c-.278-2.209-.636-5-1.03-7.987a20.386,20.386,0,0,0,3.175-.792c10.521-3.626,13.835-36.438,13.835-36.438V327.881S895.343,311.877,883.064,304.815ZM804.658,558.285c-.324-.162-.515-.272-.515-.272h0Z" transform="translate(-343.606 -112.767)" fill="url(#linear-gradient-3)"/>
    <path id="Path_126" data-name="Path 126" d="M897.409,611.715c4.563,13.124-.763,34.425-3.239,43.957a132.874,132.874,0,0,0-3.233,20.926,44.07,44.07,0,0,1-16.738-.382l4-19.59c-2.857-11.6,0-42.61,0-42.61s-6.466-11.984-7.039-30.244c-.578-17.97-4.991-23.783-5.13-23.962h0c-9.127,4.754-20.729,55.733-20.729,55.733.949,12.36-.2,31.383-4,41.644a51.475,51.475,0,0,0-2.851,20.348c-1.33,1.157-3.181,1.319-5.205.995-5.431-.879-11.944-5.558-11.944-5.558s2.088-55.525,3.615-57.63,0-14.078,0-14.078l2.47-19.4s-.382-32.91,3.233-38.613c3.123-4.928,3.84-13.592,3.979-15.865v-.578l5.506-6.594s53.258-4,57.26,0c.978.977,1.585,3.21,1.943,6.015,1.1,8.629-.162,22.7-.162,22.7s-1.6,10.463-3.881,21.111a46.341,46.341,0,0,0,0,19.4A58.088,58.088,0,0,0,897.409,611.715Z" transform="translate(-364.302 -230.229)" fill="#65617d"/>
    <path id="Path_127" data-name="Path 127" d="M932.491,806.764c-2.377,3.141-16.357,1.81-18.74.833-1.452-.578-1.342-3.337-.949-6.154.249-1.787.613-3.615.763-4.945.376-3.424-1.157-10.37-1.157-10.37s3.135,3.332,3.893,0a3.628,3.628,0,0,1,2.718-2.58,7.1,7.1,0,0,1,4.939.307c2.47,1.076,6.588,3.36,5.853,6.449-1.047,4.367,2.661,10.567,2.661,10.567a4.811,4.811,0,0,1,.694,1.191,4.564,4.564,0,0,1-.677,4.7Z" transform="translate(-402.715 -341.875)" fill="#a27772"/>
    <path id="Path_128" data-name="Path 128" d="M932.592,820.031c-2.377,3.141-16.357,1.81-18.74.833-1.452-.578-1.342-3.337-.949-6.154,1.5.706,4.049,1.29,8.311.9a23.466,23.466,0,0,1,2.99-.093,69.542,69.542,0,0,0,9.081-.185A4.563,4.563,0,0,1,932.592,820.031Z" transform="translate(-402.815 -355.142)" opacity="0.1"/>
    <path id="Path_129" data-name="Path 129" d="M853.994,642.986c.948,12.36-.2,31.383-4,41.644a51.478,51.478,0,0,0-2.851,20.348c-1.33,1.157-3.181,1.319-5.205.995,1.157-8.022,6.038-42.586,9.167-69.9a114.376,114.376,0,0,1,20.243-52.494l3.326,3.661C865.6,592.007,853.994,642.986,853.994,642.986Z" transform="translate(-373.004 -257.694)" opacity="0.1"/>
    <path id="Path_130" data-name="Path 130" d="M909,324.013l-2.314,11.412L895.312,354.54l-14.026-5.992S862.2,328.576,874.2,325.725a10.618,10.618,0,0,0,3.979-1.77,8.228,8.228,0,0,0,3.106-6.883,21.1,21.1,0,0,0-1.932-8.178l24.535-7.7a39.382,39.382,0,0,0-1.735,9.937c-.191,6.686,2.314,9.977,4.332,11.568A7.37,7.37,0,0,0,909,324.013Z" transform="translate(-384.935 -138.634)" fill="#fbbebe"/>
    <path id="Path_131" data-name="Path 131" d="M910.512,301.19a39.382,39.382,0,0,0-1.735,9.937,18.655,18.655,0,0,1-1.429,1.521,19.411,19.411,0,0,1-19.4,4.425A21.1,21.1,0,0,0,886,308.894Z" transform="translate(-391.58 -138.634)" opacity="0.1"/>
    <path id="Path_132" data-name="Path 132" d="M904.96,281.619a19.312,19.312,0,1,1-5.658-13.744,19.4,19.4,0,0,1,5.658,13.744Z" transform="translate(-383.211 -122.203)" fill="#fbbebe"/>
    <path id="Path_133" data-name="Path 133" d="M909,339.676l-2.314,11.411L895.312,370.2l-14.026-5.992S862.2,344.24,874.2,341.388a10.617,10.617,0,0,0,3.979-1.77c-2.163,5.946,6.767,18.317,6.767,18.317,1.041,1.533,3.424.578,3.424.578,5.755-.873,16.345-17.421,18.074-20.174A7.369,7.369,0,0,0,909,339.676Z" transform="translate(-384.935 -154.297)" opacity="0.1"/>
    <path id="Path_134" data-name="Path 134" d="M909.063,526.233c-3.378.769-22.065,4.9-29.151,3.869-7.8-1.157-22.956-1.9-22.956-1.9s-9.653.521-12.626-.839v-.578l5.506-6.594s53.258-4,57.26,0C908.1,521.2,908.7,523.428,909.063,526.233Z" transform="translate(-374.011 -230.221)" opacity="0.1"/>
    <path id="Path_135" data-name="Path 135" d="M864.374,358.639s-10.035-13.881-6.252-19.318l-16.952,6.941s-10.2-1.238-13.881,13.991a26.5,26.5,0,0,0-.63,7.727,22.861,22.861,0,0,1-2.794,11.568c-4.182,8.369-3.233,27.583,5.327,29.5s11.6.949,11.6.949S839.63,444.8,834.7,448.8s12.609,3.042,12.609,3.042,15.159.763,22.962,1.9,29.671-4,29.671-4-3.233-14.645-4.378-23.962-3.812-29.168-3.812-29.168l19.4-26.282s3.424-15.882-8.56-22.921-16.49-8.763-16.49-8.763-12.042,19.607-18.317,20.556C867.8,359.206,865.415,360.166,864.374,358.639Z" transform="translate(-364.367 -154.427)" fill="#fd5757"/>
    <path id="Path_136" data-name="Path 136" d="M854.823,382.74s-.185,6.281.954,8.751,5.327,16.195,5.327,16.195H851.59s5.136-5.518,4.76-8.184S854.823,382.74,854.823,382.74Z" transform="translate(-377.072 -173.017)" opacity="0.1"/>
    <path id="Path_137" data-name="Path 137" d="M883.763,445.2s-21.007-5.136-22.962-9.509-7.351-14.165-7.351-14.165l2.215-2.984,10.214,8.016s12.146,9.7,17.884,10.654S883.763,445.2,883.763,445.2Z" transform="translate(-377.857 -188.11)" fill="#fbbebe"/>
    <path id="Path_138" data-name="Path 138" d="M883.763,445.2s-21.007-5.136-22.962-9.509-7.351-14.165-7.351-14.165l2.215-2.984,10.214,8.016s12.146,9.7,17.884,10.654S883.763,445.2,883.763,445.2Z" transform="translate(-377.857 -188.11)" opacity="0.05"/>
    <path id="Path_139" data-name="Path 139" d="M909.6,421.788v11.394H907.77a53.262,53.262,0,0,0-25.875,6.7l-3.426,1.9-.92.515-5.9-13.3,5.518-4.945h.283c1.348.133,7.183.619,9.659-.214,2.348-.8,5.263-3.326,12.181-1.562,3.407.873,6.322,4.691,9.624,3.5Z" transform="translate(-385.53 -189.426)" fill="#fbbebe"/>
    <path id="Path_140" data-name="Path 140" d="M938.808,376.575l3.8,4.28v10.37s-3.233,32.713-13.5,36.328S900.5,425.46,900.5,425.46s-4.737-12.551-2.522-13.3,19.578-5.344,19.578-5.344-.243-19.191,3.557-24.9c0,0-2.47-17.878,6.09-18.26S938.808,376.575,938.808,376.575Z" transform="translate(-396.382 -164.966)" opacity="0.1"/>
    <path id="Path_141" data-name="Path 141" d="M939.81,376.575l3.806,4.28v10.37s-3.233,32.713-13.505,36.328S901.5,425.46,901.5,425.46s-4.737-12.551-2.516-13.3,19.578-5.344,19.578-5.344-.249-19.191,3.557-24.9c0,0-2.475-17.878,6.085-18.26S939.81,376.575,939.81,376.575Z" transform="translate(-396.806 -164.966)" fill="#fd5757"/>
    <path id="Path_142" data-name="Path 142" d="M902.531,289.8a7.647,7.647,0,0,0-.434-3.707,2.823,2.823,0,0,0-3.019-1.735c-1.625.382-2.313,2.5-3.921,3.008a3.134,3.134,0,0,1-3.47-1.781,8.874,8.874,0,0,1-.659-4.141v-4.766c0-1.735-.058-3.6-1.122-4.957-1.325-1.689-4.442-2.429-6.524-2.36a5.535,5.535,0,0,0-3.725,1.5,4.794,4.794,0,0,1-3.916,1.394,3.372,3.372,0,0,1-2.73-2.36v-.058a19.4,19.4,0,1,1,28.838,25.75,52.317,52.317,0,0,0,.682-5.784Z" transform="translate(-386.103 -122.153)" opacity="0.1"/>
    <path id="Path_143" data-name="Path 143" d="M872.074,263.115a3.4,3.4,0,0,1-2.736-2.366c-.156-.613-.116-1.267-.295-1.874-.445-1.5-2.042-2.273-3.112-3.412-2.14-2.273-2-6.009-.486-8.745,1.226-2.2,3.6-4.049,6.085-3.632,1.538.266,2.892,1.359,4.43,1.463s2.892-.746,4.24-1.371a15.975,15.975,0,0,1,10.538-.937,6.073,6.073,0,0,1,2.892,1.463,25.311,25.311,0,0,1,1.544,2.169c1.77,2.256,4.945,2.7,7.773,3.21s6.027,1.631,6.941,4.349c.619,1.8,0,3.759-.336,5.633a1.7,1.7,0,0,0,.075,1.157c.445.729,1.55.422,2.383.578,1.6.341,2.013,2.406,2.076,4.049q.1,2.811.15,5.628a7.167,7.167,0,0,1-.168,2.082,7.352,7.352,0,0,1-1.614,2.62l-6.281,7.548c-2.788,3.343-5.743,7.241-5.205,11.568-1.319.578-2.892-.549-3.32-1.932a8.639,8.639,0,0,1,.208-4.286,52.537,52.537,0,0,0,1.006-7.432,7.623,7.623,0,0,0-.434-3.7,2.823,2.823,0,0,0-3.019-1.735c-1.631.382-2.314,2.5-3.921,3.008a3.134,3.134,0,0,1-3.47-1.781,8.849,8.849,0,0,1-.659-4.135v-4.772c0-1.735-.058-3.6-1.122-4.957-1.324-1.689-4.442-2.429-6.524-2.36a5.536,5.536,0,0,0-3.719,1.5A4.8,4.8,0,0,1,872.074,263.115Z" transform="translate(-382.437 -113.573)" fill="#7c5c5c"/>
    <path id="Path_144" data-name="Path 144" d="M885.3,381.92l5.957,24.471S895.954,406.362,885.3,381.92Z" transform="translate(-391.285 -172.671)" opacity="0.1"/>
    <path id="Path_145" data-name="Path 145" d="M916.511,374.85s-7.8,12.771-4.754,25.981l1.452.1S910.617,394.822,916.511,374.85Z" transform="translate(-402.142 -169.69)" opacity="0.1"/>
    <path id="Path_146" data-name="Path 146" d="M929,499.325s9.578-3.17,10.272,4.182C939.3,503.506,937.491,498.469,929,499.325Z" transform="translate(-409.71 -221.884)" opacity="0.1"/>
    <path id="Path_147" data-name="Path 147" d="M869.254,426.81s-1.9,13.3,1.521,18.641a41.716,41.716,0,0,1-16.738,2.285L852.88,426.81Z" transform="translate(-377.616 -191.597)" opacity="0.1"/>
    <path id="Path_148" data-name="Path 148" d="M878.469,443.523l-.92.515-5.9-13.3,5.518-4.945h.283C877.364,426.449,875.826,437.884,878.469,443.523Z" transform="translate(-385.53 -191.167)" opacity="0.1"/>
    <path id="Path_149" data-name="Path 149" d="M865.244,425.83s-1.9,13.3,1.521,18.635a41.594,41.594,0,0,1-16.738,2.285l-6.657-20.92Z" transform="translate(-373.607 -191.184)" fill="#fd5757"/>
    <path id="Path_150" data-name="Path 150" d="M819.871,798.312a4.309,4.309,0,0,1-3.7,3.771c-5.165.769-17.606,2.736-20.747,4.234-4,1.9-19.781.578-20.544-1.33a3.019,3.019,0,0,1,.272-2.313,6.1,6.1,0,0,1,2.551-2.742,6.766,6.766,0,0,1,1.157-.509c2.973-.989,8.589-3.094,10.1-5.3,0,0,7-6.125,9-9.433a4.569,4.569,0,0,1,3.655-2.279c1.666-.075,3.522.763,4.286,4.413,0,0,9.121,5.206,11.568.642,0,0,.382,7.01,1.9,8.93h0a2.545,2.545,0,0,1,.5,1.92Z" transform="translate(-344.683 -341.521)" fill="#a27772"/>
    <path id="Path_151" data-name="Path 151" d="M819.871,808.51a4.309,4.309,0,0,1-3.7,3.771c-5.165.769-17.606,2.736-20.747,4.234-4,1.9-19.781.578-20.544-1.33a3.019,3.019,0,0,1,.272-2.314,6.1,6.1,0,0,1,2.551-2.741c2.574,1.735,8.288,3.378,20.857,1.417,11.99-1.874,17.93-3.708,20.822-4.957h0A2.545,2.545,0,0,1,819.871,808.51Z" transform="translate(-344.683 -351.719)" opacity="0.1"/>
    <g id="Group_10" data-name="Group 10" transform="translate(481.86 137.171)" opacity="0.1">
      <path id="Path_152" data-name="Path 152" d="M942.441,268.933v-.093a17.036,17.036,0,0,0,.578-4.321,28.511,28.511,0,0,1-.578,3.47A2.106,2.106,0,0,0,942.441,268.933Z" transform="translate(-897.214 -260.344)"/>
      <path id="Path_153" data-name="Path 153" d="M898.412,283.692a5.5,5.5,0,0,1,.469,2.175,6.56,6.56,0,0,0-.469-3.031A2.812,2.812,0,0,0,895.4,281.1c-1.631.382-2.314,2.5-3.927,3.008a3.141,3.141,0,0,1-3.47-1.781,8.8,8.8,0,0,1-.659-4.141V273.42c0-1.735-.058-3.6-1.122-4.957-1.33-1.695-4.442-2.429-6.524-2.366a5.541,5.541,0,0,0-3.725,1.5,4.806,4.806,0,0,1-3.921,1.394,3.389,3.389,0,0,1-2.73-2.36c-.156-.613-.116-1.272-.295-1.88-.445-1.492-2.042-2.273-3.112-3.407a6.229,6.229,0,0,1-1.6-4.049,6.484,6.484,0,0,0,1.6,4.876c1.07,1.157,2.666,1.914,3.112,3.407.179.578.139,1.267.295,1.88a3.389,3.389,0,0,0,2.73,2.36,4.806,4.806,0,0,0,3.921-1.394,5.541,5.541,0,0,1,3.725-1.5c2.082-.064,5.205.671,6.524,2.366,1.064,1.359,1.116,3.227,1.122,4.957v4.766a8.753,8.753,0,0,0,.659,4.135,3.149,3.149,0,0,0,3.47,1.787c1.6-.509,2.314-2.626,3.927-3.008A2.921,2.921,0,0,1,898.412,283.692Z" transform="translate(-864.285 -257.3)"/>
      <path id="Path_154" data-name="Path 154" d="M940.756,292.982a7.311,7.311,0,0,1-1.62,2.614l-6.281,7.548c-2.643,3.175-5.437,6.854-5.205,10.908.191-3.719,2.782-7.1,5.205-10.052l6.281-7.548a7.311,7.311,0,0,0,1.62-2.614,7.222,7.222,0,0,0,.168-2.088,5.5,5.5,0,0,1-.168,1.232Z" transform="translate(-890.995 -271.825)"/>
      <path id="Path_155" data-name="Path 155" d="M921.848,327.368a4.448,4.448,0,0,1-.191-1.018,5.13,5.13,0,0,0,.191,1.874c.428,1.377,2,2.516,3.32,1.926a8.109,8.109,0,0,1-.069-.833C923.78,329.843,922.253,328.721,921.848,327.368Z" transform="translate(-888.466 -286.413)"/>
    </g>
    <path id="Path_156" data-name="Path 156" d="M812.69,789.36s1.99,3.47,9.2.416" transform="translate(-360.671 -344.454)" opacity="0.1"/>
    <path id="Path_157" data-name="Path 157" d="M918,790.82s6.212,7.317,14.043,2.4" transform="translate(-405.072 -345.07)" opacity="0.1"/>
    <path id="Path_158" data-name="Path 158" d="M945.954,641.23s-4.39,2.742-4.529,4.309,2.267-1.157,2.267-1.157Z" transform="translate(-414.946 -282)" opacity="0.1"/>
    <path id="Path_159" data-name="Path 159" d="M946.515,677.59a9.179,9.179,0,0,1-5.408,2.111c-3.285.145-3.008,4.425-.862,3.141A53.828,53.828,0,0,0,946.515,677.59Z" transform="translate(-413.771 -297.33)" opacity="0.1"/>
    <path id="Path_160" data-name="Path 160" d="M950.917,682.34s-2.105,10.347-3.817,8.352" transform="translate(-417.341 -299.333)" opacity="0.1"/>
    <path id="Path_161" data-name="Path 161" d="M245.861,569.131s13.216,3.626,19.578-1.2,9.121-3.274,9.121-3.274,15.171-.839,16.42-4.425-5.819-16.611-5.819-16.611c-.5-1.157-1.238-2.626-1.567-2.626l.069-5.495h0l2.2-22.991c5.072-13.008.093-29.816.093-29.816l-.908-4.17a10.55,10.55,0,0,1,.862-6.941l9.214-18.508a27.709,27.709,0,0,1,1.735-3.551c.578-1.058,1.348-2.366,2.314-3.933.283-.451.578-.92.9-1.411,1.116-1.735,2.47-3.7,4.107-5.969,4.078-5.651,6.223-12.724,7.334-17.93l.492,1.631h.11l.133.029h.22l.237.04h.087l2.834,36.068c.174,14.066,5.338,21.851,5.338,21.851l-.711,31.053c.972,7.479-1.157,17.45-2.134,21.429l-2.233,5.038a6.055,6.055,0,0,0-3.291,4.581c-.44,3.719-4.355,11.735-4.355,11.735-1.515,1.92-4.806,7.108-4.806,7.108s-1.55,5.009-.59,6.883,8.988,1.683,8.988,1.683c9.167,2.03,16.195-2.892,15.749-6.281s1.429-4.251,1.429-4.251c3.644-1.157,3.291-3.626,3.291-3.626a22.7,22.7,0,0,0-2.759-14.772l-.578,1.336a20.341,20.341,0,0,1,1.1-7.883l-.335.231-.1.064h-.035c.578-5.072,5.905-14.46,5.905-14.46,9.786-17.166,6.229-40.429,6.229-40.429l-1.515-7.253-.087-2.736a91.308,91.308,0,0,1,1.475-19.492c.526-2.846,1.07-6.281,1.486-10.07a89,89,0,0,1,5.02-19.763l.388-.069h.046c.532-.093,1.07-.185,1.614-.289h.1s.312-1.689.578-4.563c.156-1.833.283-4.159.283-6.831a76.851,76.851,0,0,0-3.65-23.777l.295-.422s.7-.949,1.978-2.591h0c2.348-2.984,6-7.519,10.509-12.632,8.068-9.2,5.7-18.508,5.7-18.508S360.1,328.94,357.5,316.089a38.959,38.959,0,0,0-6.409-15.24,30.331,30.331,0,0,0,.81-6.177c.174-3.806.041-7.773-1.672-11.192s-5.356-6.119-9.162-5.662a3.5,3.5,0,0,1-1.643,0,2.5,2.5,0,0,1-1.082-.943c-2.227-3.071-2.371-7.2-1.677-10.926s2.117-7.288,2.753-11.024.347-7.883-2.03-10.845c-2.794-3.47-7.664-4.448-11.3-7.056-2.551-1.833-4.465-4.465-7.155-6.09s-5.205-1.006-8.126-.393c-4.91,1.035-9.578,1.51-14.222,3.621a37.879,37.879,0,0,0-12.395,9.017,11.765,11.765,0,0,0-2.765,4.361c-1.157,3.823,1.1,7.895.63,11.851-.335,2.805-1.99,5.246-3.3,7.75s-2.314,5.477-1.284,8.1c1.619,4.095,6.9,4.963,10.741,7.143a3.279,3.279,0,0,1,1.272,1.1c.949,1.654-.989,3.372-2.209,4.841a7.293,7.293,0,0,0-1.446,2.938,10.48,10.48,0,0,0-6.287,7.588c-1.3,5.824.7,13.176,2.464,18.034-1.926,10.822.578,15.09,2.423,16.727a9.283,9.283,0,0,1,3.216,6.327v.2c.121,1.967.33,3.927.607,5.882h0c-.064-.457-.127-.943-.162-1.157-1.51,2.794-4.384,9.931-6,21.938a65.931,65.931,0,0,1-1.463,7.64,41.783,41.783,0,0,0-1.226,13.661l.289,3.893a1.226,1.226,0,0,1-.787-.26l2.03,3.719v6.275a23.135,23.135,0,0,1-1.539,8.277c-.145.382-.3.763-.469,1.157a6.732,6.732,0,0,0-.682,3.407c-4.367,6.692-14.379,44.194-14.379,44.194-5.431,12.3.445,20.243.445,20.243s2.846,34.234,3.378,36,1.712,22.638,1.712,22.638h0v1.66a3.892,3.892,0,0,0-.989-.283c-4.76-.266-6.05,7.253-6.05,7.253l-9.74,9.3s-4.448-.752-10.989,4.159S245.861,569.131,245.861,569.131Zm97.255-197.859-.029-.1-.266.156h0l-.11.064-.052.035h0l-4.488-15.842a26.305,26.305,0,0,1-.33-13.031l3.47-15.2h0v-3.655l11.03,29.393C353.047,357.05,346.494,366.645,343.116,371.272Z" transform="translate(-119.015 -108.575)" fill="url(#linear-gradient-4)"/>
    <path id="Path_162" data-name="Path 162" d="M401.134,557s-4.454,10.833-5.587,21.227c-.411,3.748-.943,7.137-1.463,9.948a90.913,90.913,0,0,0-1.423,19.243l.087,2.7,1.446,7.155s3.47,22.979-6.113,39.908c0,0-5.68,10.139-5.853,14.94l-3.846,1.486-7.773-2.18s3.754-13.459,2.533-22.892l.7-30.654s-5.049-7.669-5.223-21.551l-2.967-38.092Z" transform="translate(-172.192 -246.487)" fill="#fdc2cc"/>
    <path id="Path_163" data-name="Path 163" d="M329.1,547.62s-.954,14.853-8.3,25.09-8.907,14.679-8.907,14.679l-9.046,18.288a10.474,10.474,0,0,0-.85,6.842l.891,4.118s4.893,16.6-.087,29.445l-2.36,24.813h-13.8s-1.157-20.619-1.66-22.366-3.32-35.559-3.32-35.559-5.784-7.866-.44-20.006c0,0,12.059-45.432,15.287-44.645S329.1,547.62,329.1,547.62Z" transform="translate(-135.638 -242.533)" fill="#fdc2cc"/>
    <g id="Group_11" data-name="Group 11" transform="translate(163.399 305.087)" opacity="0.1">
      <path id="Path_164" data-name="Path 164" d="M316.127,616.667l-.885-4.118a10.411,10.411,0,0,1,.844-6.871l9.046-18.306s1.567-4.454,8.907-14.679c7.05-9.833,8.213-23.922,8.294-25l1.405-.069s-.954,14.853-8.3,25.09-8.907,14.679-8.907,14.679l-9.046,18.288a10.474,10.474,0,0,0-.85,6.842l.891,4.118s4.893,16.6-.087,29.445L315.08,670.9h-1.4l2.36-24.813C321.02,633.238,316.127,616.667,316.127,616.667Z" transform="translate(-313.68 -547.62)"/>
    </g>
    <path id="Path_165" data-name="Path 165" d="M389.539,672.139c.173-4.8,5.853-14.94,5.853-14.94,9.613-16.947,6.113-39.908,6.113-39.908l-1.481-7.16-.087-2.7a90.908,90.908,0,0,1,1.423-19.243c.515-2.811,1.047-6.2,1.457-9.948,1.093-10.006,5.263-20.417,5.57-21.18l1.434-.058s-4.454,10.833-5.587,21.227c-.411,3.748-.943,7.137-1.463,9.948a90.913,90.913,0,0,0-1.423,19.243l.087,2.7,1.446,7.155s3.47,22.979-6.113,39.908c0,0-5.68,10.139-5.853,14.94l-3.846,1.486-.81-.225Z" transform="translate(-180.882 -246.487)" opacity="0.1"/>
    <path id="Path_166" data-name="Path 166" d="M377.788,754.13a6.686,6.686,0,0,0,6.362-.787,20.532,20.532,0,0,0-.521,11.533c1.573,6.293-14.679-5.067-14.679-5.067l3.47-7.93S373.768,754.39,377.788,754.13Z" transform="translate(-173.583 -328.652)" fill="#d39999"/>
    <path id="Path_167" data-name="Path 167" d="M379,754.47a6.5,6.5,0,0,0,5.165-1.157,20.533,20.533,0,0,0-.521,11.533c1.573,6.293-14.679-5.067-14.679-5.067l3.47-7.93a4.958,4.958,0,0,0,3.962,2.233C377.3,754.187,378.155,754.308,379,754.47Z" transform="translate(-173.592 -328.639)" opacity="0.1"/>
    <path id="Path_168" data-name="Path 168" d="M289.32,452.75h6.79V414.224l-5.1-.914Z" transform="translate(-121.988 -174.257)" fill="#fdc2cc"/>
    <path id="Path_169" data-name="Path 169" d="M289.32,452.75h6.79V414.224l-5.1-.914Z" transform="translate(-121.988 -174.257)" opacity="0.05"/>
    <path id="Path_170" data-name="Path 170" d="M365.3,760.406a6.77,6.77,0,0,1,6.2,3.58l2.36,1.833,1.157-2.707a22.557,22.557,0,0,1,2.672,14.593s.347,2.441-3.233,3.58c0,0-1.833.873-1.4,4.193s-6.461,8.213-15.46,6.2c0,0-7.866.179-8.826-1.66s.613-6.727.613-6.727,3.233-5.125,4.714-7.016c0,0,3.846-7.924,4.286-11.568S363.031,758.393,365.3,760.406Z" transform="translate(-164.946 -331.956)" fill="#7e5659"/>
    <path id="Path_171" data-name="Path 171" d="M305.723,762.326l.069-5.431s-7.814,2.25-14.141-.295c0,0,.532,5.46-.347,6.206s2.927,7.773,2.927,7.773l4.251,4.454,7.311-2.661,1.984-6.247S306.244,762.326,305.723,762.326Z" transform="translate(-140.791 -330.642)" fill="#d39999"/>
    <path id="Path_172" data-name="Path 172" d="M305.723,762.326l.069-5.431s-7.814,2.25-14.141-.295c0,0,.532,5.46-.347,6.206s2.927,7.773,2.927,7.773l4.251,4.454,7.311-2.661,1.984-6.247S306.244,762.326,305.723,762.326Z" transform="translate(-140.791 -330.642)" opacity="0.1"/>
    <path id="Path_173" data-name="Path 173" d="M269.893,763.095s4.153.48,3.626,5.784.22,0,.22,0,4.413,1.787,5.986,4.28,4.413-2.227,4.627-3.58,1.984-1.914,1.984-1.914,6.941,12.869,5.714,16.409-16.125,4.355-16.125,4.355-2.713-1.527-8.959,3.233-19.22,1.157-19.22,1.157-10.573-4.413-4.147-9.254,10.787-4.106,10.787-4.106l9.566-9.219S265.22,762.829,269.893,763.095Z" transform="translate(-119.86 -333.377)" fill="#7e5659"/>
    <path id="Path_174" data-name="Path 174" d="M346.343,236.332c2.643,1.6,4.523,4.2,7.027,6.015,3.563,2.574,8.346,3.534,11.088,6.97,2.314,2.927,2.614,7.016,1.99,10.706s-2.024,7.212-2.7,10.891-.538,7.756,1.648,10.787a2.447,2.447,0,0,0,1.058.931,3.471,3.471,0,0,0,1.614,0c3.736-.451,7.322,2.221,9,5.593s1.81,7.293,1.637,11.053a22.844,22.844,0,0,1-1.845,9.005c-2.314,4.72-7.126,7.635-11.874,9.867a91.981,91.981,0,0,1-9.48,3.829,14.266,14.266,0,0,1-6.871,1.035c-3.95-.682-6.75-4.274-10.5-5.68-3.071-1.157-6.478-.74-9.746-.451-2.788.243-5.975.237-7.895-1.8-2.464-2.614-1.353-6.831-.093-10.2a7.259,7.259,0,0,1-5.136-11.868c1.191-1.452,3.094-3.146,2.163-4.783a3.169,3.169,0,0,0-1.249-1.087c-3.765-2.152-8.953-3.013-10.538-7.05-1.018-2.6-.035-5.535,1.255-8s2.892-4.887,3.245-7.652c.463-3.91-1.735-7.93-.619-11.7a11.73,11.73,0,0,1,2.713-4.315,37.225,37.225,0,0,1,12.146-8.9c4.563-2.088,9.138-2.556,13.962-3.574C341.236,235.337,343.631,234.69,346.343,236.332Z" transform="translate(-146.714 -110.85)" fill="#865a61"/>
    <path id="Path_175" data-name="Path 175" d="M322.32,337.755s-11.064-.578-13.158,8.855,4.54,22.944,4.54,22.944Z" transform="translate(-148.203 -154.047)" fill="#fdc2cc"/>
    <path id="Path_176" data-name="Path 176" d="M322.32,337.755s-11.064-.578-13.158,8.855,4.54,22.944,4.54,22.944Z" transform="translate(-148.203 -154.047)" opacity="0.05"/>
    <path id="Path_177" data-name="Path 177" d="M320,349.158l4.193,3.32,19.567.873,12.215-8.387L368.4,323.645a15.359,15.359,0,0,1-11.811-12.088,26.466,26.466,0,0,1-.243-10.1s-19.919-10.313-17.473,5.784a21.865,21.865,0,0,1,.185,5.98c-1.157,9.428-10.307,7.652-10.307,7.652l-3.511,5.414-4.02,13.3Z" transform="translate(-152.945 -137.375)" fill="#fdc2cc"/>
    <path id="Path_178" data-name="Path 178" d="M352.508,307.216a21.862,21.862,0,0,1,.185,5.98,17.658,17.658,0,0,0,17.531-1.643,26.467,26.467,0,0,1-.243-10.1S350.062,291.143,352.508,307.216Z" transform="translate(-166.563 -137.372)" opacity="0.1"/>
    <circle id="Ellipse_24" data-name="Ellipse 24" cx="17.646" cy="17.646" r="17.646" transform="translate(175.823 141.428)" fill="#fdc2cc"/>
    <path id="Path_179" data-name="Path 179" d="M330.774,362.081c.428,0,.85.064,1.272.1,2.314.231,11.978.752,17.485-5.824,6.16-7.357,14.361-16.443,14.7-16.814l8.346,2.522s-6.605-2.348-10.989,9.937a12.724,12.724,0,0,0,4.3,14.639,13.223,13.223,0,0,0,5.46,2.314.029.029,0,0,1,0,.029v5.391h0l-3.412,15.038a26.067,26.067,0,0,0,.324,12.869l5.205,18.4c-.787.544-33.084,22.511-54.657,7.34h0c.081-.659,2.747-22.25.9-32.817a72.984,72.984,0,0,1-.966-8.167v-.2a9.208,9.208,0,0,0-3.164-6.246c-1.943-1.735-4.575-6.362-1.972-18.589a44.916,44.916,0,0,1,2.892-8.809l7.236-16.351h0l6.669.133v.046c-.578.717-8.311,10.376-9.15,16.6C320.421,359.536,319.409,361.352,330.774,362.081Z" transform="translate(-149.786 -153.664)" fill="#fd5757"/>
    <path id="Path_180" data-name="Path 180" d="M402.468,348.558s6.524,5.593,9.086,18.288,8.271,33.783,8.271,33.783,2.314,9.2-5.593,18.289-13.164,16.195-13.164,16.195l-5.205,7.669a6.53,6.53,0,0,1-3.748,2.649c-2.371.625-6.015,1.076-9.173-.654a5.344,5.344,0,0,1-2.314-6.75l1.157-2.678s-10.717,6.756-11.649,3.025S382.6,430.92,382.6,430.92s11.064-1.862,13.3-7.1c0,0,11.88-15.264,10.949-20.5l-11.475-30.753s-14.35-1.9-9.457-18.017S402.468,348.558,402.468,348.558Z" transform="translate(-174.064 -157.28)" fill="#fdc2cc"/>
    <path id="Path_181" data-name="Path 181" d="M307.368,519.862s26.212,5.24,32.389,4.54l.665,2.215s9.948,2.227,32.441-1.342q2.2-.347,4.575-.781l.526-.093s.307-1.666.549-4.505a78.136,78.136,0,0,0-3.812-31.719l-3.783-11.649s-23.378,14.014-38.856,12.724c-1.382-.116-2.753-.226-4.135-.272-3.175-.121-8.1,0-11.3-2.562l-6.709,1.157v19.087a22.869,22.869,0,0,1-1.515,8.167c-.145.382-.295.758-.463,1.157A6.073,6.073,0,0,0,307.368,519.862Z" transform="translate(-147.578 -212.56)" fill="#65617d"/>
    <path id="Path_182" data-name="Path 182" d="M364.58,552.291v5.94s11.452,2.562,37.543-2.215c0,0,.307-1.666.549-4.506C394.667,552.794,372.591,555.883,364.58,552.291Z" transform="translate(-171.741 -244.173)" opacity="0.1"/>
    <path id="Path_183" data-name="Path 183" d="M307.37,547.8s26.212,5.24,32.389,4.54l.665,2.215v-5.94c-2.984,1.238-24.292-3.9-32.014-5.824-.145.382-.3.758-.463,1.157a6.073,6.073,0,0,0-.578,3.852Z" transform="translate(-147.58 -240.496)" opacity="0.1"/>
    <path id="Path_184" data-name="Path 184" d="M417.31,537.285l1.943,12.054q2.2-.347,4.575-.781c-.607-3.522-1.932-11.568-1.567-12.9l-2.447-2.094Z" transform="translate(-193.973 -236.605)" fill="#65617d"/>
    <path id="Path_185" data-name="Path 185" d="M417.78,536.835l1.943,12.059q2.2-.353,4.575-.781c-.607-3.522-1.932-11.568-1.567-12.9l-2.447-2.1Z" transform="translate(-194.171 -236.415)" opacity="0.1"/>
    <g id="Group_12" data-name="Group 12" transform="translate(167.928 263.953)" opacity="0.05">
      <path id="Path_186" data-name="Path 186" d="M336.664,496.454c-1.377-.116-2.753-.226-4.135-.272-3.089-.116-7.8,0-11.018-2.366l1.122-.2c3.216,2.551,8.1,2.441,11.3,2.562,1.382.046,2.753.156,4.135.272.451.04.914.064,1.382.075a25.944,25.944,0,0,1-2.782-.075Z" transform="translate(-321.51 -483.718)"/>
      <path id="Path_187" data-name="Path 187" d="M402.073,525.263q2.2-.347,4.575-.775l.532-.1s.307-1.666.544-4.506a77.931,77.931,0,0,0-3.812-31.718l-3.563-10.989c.758-.428,1.157-.677,1.157-.677l3.783,11.649a78.136,78.136,0,0,1,3.812,31.719c-.243,2.84-.549,4.506-.549,4.506l-.526.1q-2.366.428-4.575.775a144.074,144.074,0,0,1-23.569,2.024A148.642,148.642,0,0,0,402.073,525.263Z" transform="translate(-346.12 -476.5)"/>
      <path id="Path_188" data-name="Path 188" d="M360.452,559.3v.064H359.7Q360.128,559.335,360.452,559.3Z" transform="translate(-337.612 -511.41)"/>
    </g>
    <ellipse id="Ellipse_25" data-name="Ellipse 25" cx="0.989" cy="2.036" rx="0.989" ry="2.036" transform="translate(225.605 298.858)" fill="#d39999"/>
    <path id="Path_189" data-name="Path 189" d="M311.793,453.3c1.6-11.857,4.413-18.9,5.9-21.66.058.376.208,1.6.278,1.972a57.278,57.278,0,0,1,.127,6.125l-1.481,26.814,1.984,8.387c1.862,6.64-5.038,1.394-5.038,1.394-1.429,3.146-4.049,2.8-4.049,2.8l-.359-4.812a41.563,41.563,0,0,1,1.2-13.494,64.293,64.293,0,0,0,1.434-7.525Z" transform="translate(-148.324 -193.634)" fill="#fdc2cc"/>
    <path id="Path_190" data-name="Path 190" d="M311.793,453.3c1.6-11.857,4.413-18.9,5.9-21.66.058.376.208,1.6.278,1.972a57.278,57.278,0,0,1,.127,6.125l-1.481,26.814,1.984,8.387c1.862,6.64-5.038,1.394-5.038,1.394-1.429,3.146-4.049,2.8-4.049,2.8l-.359-4.812a41.563,41.563,0,0,1,1.2-13.494,64.293,64.293,0,0,0,1.434-7.525Z" transform="translate(-148.324 -193.634)" opacity="0.05"/>
    <path id="Path_191" data-name="Path 191" d="M404.581,485.44c-1.255,1.625-1.943,2.556-1.943,2.556l-5.205,7.664a6.5,6.5,0,0,1-3.748,2.649c-2.371.625-6.015,1.082-9.173-.654a5.333,5.333,0,0,1-2.313-6.744l1.157-2.684s-10.717,6.755-11.649,3.031S384.17,483.8,384.17,483.8s11.064-1.862,13.3-7.108c0,0,.966-1.238,2.314-3.135" transform="translate(-174.726 -211.308)" fill="#fdc2cc"/>
    <path id="Path_192" data-name="Path 192" d="M403.806,510.129s-12.672-1.232-16.686-8.479l-1.839,5.986s13.3,9.185,16.339,7.993Z" transform="translate(-180.468 -223.151)" fill="#65617d"/>
    <path id="Path_193" data-name="Path 193" d="M403.03,510.025s-12.667-1.232-16.686-8.485l-1.833,5.969s13.3,9.185,16.334,7.993Z" transform="translate(-180.144 -223.105)" opacity="0.1"/>
    <path id="Path_194" data-name="Path 194" d="M313.71,510.46s-4.436,1.573-5.31.7l2,3.673,3.771-2.892Z" transform="translate(-148.054 -226.865)" fill="#65617d"/>
    <path id="Path_195" data-name="Path 195" d="M313.71,510.46s-4.436,1.573-5.31.7l2,3.673,3.771-2.892Z" transform="translate(-148.054 -226.865)" opacity="0.1"/>
    <path id="Path_196" data-name="Path 196" d="M332.092,527.134V519.47l-1.822,7.849Z" transform="translate(-139.253 -219.016)" opacity="0.1"/>
    <path id="Path_197" data-name="Path 197" d="M366.468,266.962a6.806,6.806,0,0,1-4.754,2.5,37.461,37.461,0,0,1-5.524,0c-2.892-.046-5.969.4-8.335,2.1a21.19,21.19,0,0,0-3.823,4.049c-3.574,4.367-8.537,8.456-14.17,8a3.673,3.673,0,0,1-2.632-1.111,4.222,4.222,0,0,1-.671-2.394,54.737,54.737,0,0,1,.341-10.793,22.755,22.755,0,0,1,1.631-6.437,21.978,21.978,0,0,1,3.921-5.6A23.985,23.985,0,0,1,339.3,251.8a12.273,12.273,0,0,1,8.56-1.1c3.372.92,6,3.557,9.214,4.916C360.742,257.153,370.494,261.277,366.468,266.962Z" transform="translate(-155.659 -117.206)" opacity="0.1"/>
    <path id="Path_198" data-name="Path 198" d="M366.468,265.748a6.806,6.806,0,0,1-4.754,2.5,37.473,37.473,0,0,1-5.524,0c-2.892-.052-5.969.393-8.335,2.094a21.189,21.189,0,0,0-3.823,4.049c-3.574,4.367-8.537,8.456-14.17,8a3.65,3.65,0,0,1-2.632-1.111,4.2,4.2,0,0,1-.671-2.395A54.735,54.735,0,0,1,326.9,268.1a22.754,22.754,0,0,1,1.631-6.437,21.829,21.829,0,0,1,3.921-5.593,23.9,23.9,0,0,1,6.842-5.489,12.273,12.273,0,0,1,8.56-1.1c3.372.92,6,3.557,9.214,4.916C360.742,255.939,370.494,260.051,366.468,265.748Z" transform="translate(-155.659 -116.691)" fill="#865a61"/>
    <path id="Path_199" data-name="Path 199" d="M291.92,473.47l-.046,2.111-.474-2.019Z" transform="translate(-122.864 -199.621)" fill="#fdc2cc"/>
    <path id="Path_200" data-name="Path 200" d="M291.92,473.47l-.046,2.111-.474-2.019Z" transform="translate(-122.864 -199.621)" opacity="0.05"/>
    <g id="Group_13" data-name="Group 13" transform="translate(210.54 188.63)" opacity="0.05">
      <path id="Path_201" data-name="Path 201" d="M398.3,353.8c-4.9,16.12,9.381,18.011,9.381,18.011l11.475,30.753c.931,5.24-10.955,20.5-10.955,20.5-.827,1.955-2.892,3.441-5.148,4.54a8.063,8.063,0,0,0,3.054-3.355s11.88-15.258,10.949-20.5L405.587,373s-14.274-1.891-9.381-18.011c1.637-5.385,4.049-7.837,6.489-8.716C401.012,347.623,399.467,349.966,398.3,353.8Z" transform="translate(-395.184 -346.27)"/>
    </g>
    <g id="Group_14" data-name="Group 14" transform="translate(162.762 183.17)" opacity="0.1">
      <path id="Path_202" data-name="Path 202" d="M401,384.61a12.05,12.05,0,0,0,2.313,2.192,13.148,13.148,0,0,0,5.46,2.314v.607a13.107,13.107,0,0,1-4.951-2.192A12,12,0,0,1,401,384.61Z" transform="translate(-349.858 -356.975)"/>
      <path id="Path_203" data-name="Path 203" d="M322.775,420.782v.2a74.7,74.7,0,0,0,.995,8.2c1.735,9.971-.538,29.769-.862,32.505-.185-.121-.37-.237-.578-.37.087-.659,2.753-22.25.9-32.812a73.3,73.3,0,0,1-.966-8.167v-.2a8.924,8.924,0,0,0-1.556-4.425,8.994,8.994,0,0,1,2.065,5.072Z" transform="translate(-316.006 -370.087)"/>
      <path id="Path_204" data-name="Path 204" d="M329.994,337.622l-5.657-.11a.029.029,0,0,0-.029,0l-7.23,16.345a45.061,45.061,0,0,0-2.892,8.809c-2.105,9.89-.781,14.818.827,17.253-1.81-2.134-3.678-7-1.348-17.93a44.583,44.583,0,0,1,2.863-8.815l7.282-16.345h0l6.669.133V337C330.428,337.073,330.248,337.293,329.994,337.622Z" transform="translate(-312.577 -336.83)"/>
      <path id="Path_205" data-name="Path 205" d="M416.39,345.87l.1.029Z" transform="translate(-356.346 -340.641)"/>
      <path id="Path_206" data-name="Path 206" d="M377.237,343.956l-5.668-1.706h-.029c-.335.37-8.531,9.457-14.691,16.814-5.506,6.576-15.159,6.061-17.485,5.83-.422-.046-.85-.081-1.272-.11-6.322-.4-8.809-1.157-9.642-2.753,1.186,1.157,3.794,1.735,9.115,2.059.428,0,.85.064,1.272.1,2.314.231,11.978.746,17.485-5.824,6.16-7.363,14.361-16.449,14.7-16.819h0l8.248,2.5a5.153,5.153,0,0,0-2.03-.093Z" transform="translate(-319.27 -338.82)"/>
    </g>
    <path id="Path_207" data-name="Path 207" d="M289.826,776.723s-7.982,2.18-9.526-1.244" transform="translate(-136.207 -338.602)" opacity="0.1"/>
    <path id="Path_208" data-name="Path 208" d="M376.074,773.847s-9.254,2.389-11.394-1.307" transform="translate(-171.783 -337.363)" opacity="0.1"/>
    <path id="Path_209" data-name="Path 209" d="M569.5,754.02c.133-1.157.324-2.314.532-3.47a24.189,24.189,0,0,0-1.157-11.73h0c-.214-.607-.37-.948-.37-.948-3.684-1.006-18.208,10.26-23.5,14.506-1.833,0-3.823.081-6,.226-.949.069-1.9.093-2.846.075h-3.47c-4.91-3.956-20.11-15.854-23.893-14.824,0,0-.156.341-.37.949h0a23.768,23.768,0,0,0-1.186,11.73c.208,1.157.4,2.313.532,3.47.283,2.539,1.348,7.415,5.206,10.706.827,6.015,3.921,13.922,6.3,18.722a13.408,13.408,0,0,0,.81,2.643c-.983,3.794-2.117,8.745-1.793,10.411,0,0-5.136-1.243-5.657,4.939v.191c-1.857.85-4.176,2.8-1.567,6.883a2.678,2.678,0,0,0,1.342,1.093c.463.162.914.162.868-.486l3.21,3.615s5.818.671,5.888-2.707l.341.052c.781.116,1.6.214,2.435.3l.4,1.336s-4.367-.092-3.175,2.6c0,0,1.1,1.018,1.475.648,0,0-.578,1.764,1.7,1.764,0,0,2.447,1.3,3.4.37s2.932-2.314,3.117-2.892c.052-.156.075-1.527.087-3.424h.376c4.876.116,10.052-.041,14.76-.295h.382c0,2.053.029,3.568.081,3.73.191.578,2.175,1.949,3.123,2.892s3.4-.37,3.4-.37c2.267,0,1.7-1.764,1.7-1.764.382.37,1.481-.648,1.481-.648,1.191-2.689-3.181-2.6-3.181-2.6l.521-1.735,2.412-.2.382-.035c-.231,3.673,5.882,2.967,5.882,2.967l3.216-3.615c-.052.648.4.648.862.486a2.655,2.655,0,0,0,1.3-1.1c3.939-6.16-3.337-7.467-3.337-7.467a3.57,3.57,0,0,0-.688-.11,1.185,1.185,0,0,1,.029-.318h0a12.692,12.692,0,0,0,.046-2.441c-.272-1.116-2.065-2.892-4.332-3.152-1.481-.185-1.51-6.987-1.359-11.7a13.461,13.461,0,0,0,.231-2.684,14.159,14.159,0,0,0-.578-4.3c2.892-4.9,5.205-10.047,5.466-11.568C568.15,761.417,569.214,756.559,569.5,754.02Z" transform="translate(-231.762 -322.712)" fill="url(#linear-gradient-5)"/>
    <path id="Path_210" data-name="Path 210" d="M568.681,831.431h0c-.231,3.2-.85,8.346-.85,8.346s-2.574.312-6.553.671l-2.7.231c-2.071.168-4.4.33-6.854.469-4.54.249-9.526.4-14.228.289-2.348-.052-4.627-.173-6.738-.382-.943-.093-1.857-.2-2.724-.33-5.391-.8-9.254-2.342-9.584-5.043a15.617,15.617,0,0,1-.122-3.47c.5-6.073,5.448-4.847,5.448-4.847-.318-1.677.879-6.889,1.851-10.66.613-2.377,1.157-4.182,1.157-4.182l34.772-2.314h.116a1.7,1.7,0,0,1,1.7,1.787c-.208,4.17-.5,13.719,1.2,13.933a5.242,5.242,0,0,1,4.182,3.094A12.98,12.98,0,0,1,568.681,831.431Z" transform="translate(-236.544 -353.245)" fill="#fd5757"/>
    <path id="Path_211" data-name="Path 211" d="M535.174,756.209s-13.112,15.784-19.428,11.411c-.15-.1-.295-.208-.434-.318-4.245-3.216-5.362-8.4-5.656-11.03-.127-1.157-.312-2.273-.515-3.4a23.616,23.616,0,0,1,1.157-11.516h0c.208-.578.353-.931.353-.931C515.017,739.21,535.174,756.209,535.174,756.209Z" transform="translate(-232.569 -323.796)" fill="#fd5757"/>
    <path id="Path_212" data-name="Path 212" d="M528.108,758.39s-4.13,2.892-9.954,7.646a21.038,21.038,0,0,1-2.892,1.99c-4.245-3.216-5.362-8.4-5.657-11.03-.127-1.157-.312-2.273-.515-3.4a23.616,23.616,0,0,1,1.157-11.516h0C518.414,742.647,528.108,758.39,528.108,758.39Z" transform="translate(-232.548 -324.52)" fill="#fd5757"/>
    <path id="Path_213" data-name="Path 213" d="M528.108,758.39s-4.13,2.892-9.954,7.646a21.038,21.038,0,0,1-2.892,1.99c-4.245-3.216-5.362-8.4-5.657-11.03-.127-1.157-.312-2.273-.515-3.4a23.616,23.616,0,0,1,1.157-11.516h0C518.414,742.647,528.108,758.39,528.108,758.39Z" transform="translate(-232.548 -324.52)" fill="#fff" opacity="0.5"/>
    <path id="Path_214" data-name="Path 214" d="M526.93,761.245s-2.2,1.556-5.315,4.083a11.2,11.2,0,0,1-1.527,1.058,8.514,8.514,0,0,1-3.019-5.882c-.064-.613-.162-1.215-.272-1.822a12.644,12.644,0,0,1,.642-6.143h0C521.759,752.841,526.93,761.245,526.93,761.245Z" transform="translate(-235.864 -328.93)" opacity="0.1"/>
    <path id="Path_215" data-name="Path 215" d="M569.05,756.209s13.112,15.784,19.428,11.411c.145-.1.3-.208.434-.318,4.245-3.216,5.362-8.4,5.657-11.03.127-1.157.312-2.273.509-3.4a23.545,23.545,0,0,0-1.157-11.516h0c-.208-.578-.359-.931-.359-.931C589.207,739.21,569.05,756.209,569.05,756.209Z" transform="translate(-257.949 -323.796)" fill="#fd5757"/>
    <path id="Path_216" data-name="Path 216" d="M581.22,758.39s4.135,2.892,9.96,7.646a21.035,21.035,0,0,0,2.863,1.99c4.245-3.216,5.362-8.4,5.657-11.03.127-1.157.312-2.273.509-3.4a23.546,23.546,0,0,0-1.157-11.516h0C590.925,742.647,581.22,758.39,581.22,758.39Z" transform="translate(-263.08 -324.52)" fill="#fd5757"/>
    <path id="Path_217" data-name="Path 217" d="M581.22,758.39s4.135,2.892,9.96,7.646a21.035,21.035,0,0,0,2.863,1.99c4.245-3.216,5.362-8.4,5.657-11.03.127-1.157.312-2.273.509-3.4a23.546,23.546,0,0,0-1.157-11.516h0C590.925,742.647,581.22,758.39,581.22,758.39Z" transform="translate(-263.08 -324.52)" fill="#fff" opacity="0.5"/>
    <path id="Path_218" data-name="Path 218" d="M589.05,761.254s2.192,1.55,5.281,4.049a10.59,10.59,0,0,0,1.521,1.053,8.541,8.541,0,0,0,3-5.847c.064-.578.162-1.209.272-1.81a12.667,12.667,0,0,0-.607-6.108h0C594.192,752.9,589.05,761.254,589.05,761.254Z" transform="translate(-266.381 -328.951)" opacity="0.1"/>
    <path id="Path_219" data-name="Path 219" d="M566.894,810.23a31.407,31.407,0,0,1-5.02,6.4c-5.205,4.627-27.681,2.788-29.139,2.551-.307-.052-.943-.96-1.735-2.435.613-2.377,1.157-4.182,1.157-4.182Z" transform="translate(-241.906 -353.253)" opacity="0.1"/>
    <path id="Path_220" data-name="Path 220" d="M543.863,765.3c-.914.064-1.828.087-2.747.069-4.691-.081-20.492.127-22.245,6.507-2.065,7.519,7.166,27.653,8.618,27.9s23.922,2.065,29.145-2.551,12.019-19.087,11.654-20.4C568.289,776.826,574.766,763.164,543.863,765.3Z" transform="translate(-236.666 -334.216)" fill="#fd5757"/>
    <path id="Path_221" data-name="Path 221" d="M548.016,786.476a16.592,16.592,0,0,0-16.993,9.6,13.881,13.881,0,0,0,1.024,13.991c1.8,2.539,4.454,4.43,8.138,2.892C548.374,809.588,548.016,786.476,548.016,786.476Z" transform="translate(-241.316 -343.196)" opacity="0.1"/>
    <path id="Path_222" data-name="Path 222" d="M547.386,785.216a16.592,16.592,0,0,0-16.993,9.6,13.881,13.881,0,0,0,1.024,13.991c1.8,2.539,4.454,4.43,8.138,2.892C547.744,808.328,547.386,785.216,547.386,785.216Z" transform="translate(-241.05 -342.665)" opacity="0.1"/>
    <path id="Path_223" data-name="Path 223" d="M547.386,785.846a16.592,16.592,0,0,0-16.993,9.6,13.881,13.881,0,0,0,1.024,13.991c1.8,2.539,4.454,4.43,8.138,2.892C547.744,808.958,547.386,785.846,547.386,785.846Z" transform="translate(-241.05 -342.93)" fill="#fd5757"/>
    <path id="Path_224" data-name="Path 224" d="M547.386,785.846a16.592,16.592,0,0,0-16.993,9.6,13.881,13.881,0,0,0,1.024,13.991c1.8,2.539,4.454,4.43,8.138,2.892C547.744,808.958,547.386,785.846,547.386,785.846Z" transform="translate(-241.05 -342.93)" fill="#fff" opacity="0.5"/>
    <path id="Path_225" data-name="Path 225" d="M538.43,803.13s-1.579,1.458-.972,1.822S538.43,803.13,538.43,803.13Z" transform="translate(-244.571 -350.26)" fill="#3f2b3b"/>
    <path id="Path_226" data-name="Path 226" d="M541.838,806.35s-.862,1.9-.249,2.111.978-1.365.978-1.365Z" transform="translate(-246.278 -351.618)" fill="#3f2b3b"/>
    <path id="Path_227" data-name="Path 227" d="M535.316,811.32s-.844,2.244,0,2.244S535.316,811.32,535.316,811.32Z" transform="translate(-243.568 -353.713)" fill="#3f2b3b"/>
    <path id="Path_228" data-name="Path 228" d="M533.78,821.71s1.689,4.315,6.085,4.008" transform="translate(-243.078 -358.093)" fill="none" stroke="#3f2b3b" stroke-miterlimit="10" stroke-width="1"/>
    <path id="Path_229" data-name="Path 229" d="M540.61,823.91a3.044,3.044,0,0,0,3.638.486" transform="translate(-245.958 -359.021)" fill="none" stroke="#3f2b3b" stroke-miterlimit="10" stroke-width="1"/>
    <path id="Path_230" data-name="Path 230" d="M564,786.476a16.592,16.592,0,0,1,16.993,9.6,13.881,13.881,0,0,1-1.024,13.991c-1.8,2.539-4.454,4.43-8.138,2.892C563.616,809.588,564,786.476,564,786.476Z" transform="translate(-255.818 -343.196)" opacity="0.1"/>
    <path id="Path_231" data-name="Path 231" d="M564.589,785.216a16.592,16.592,0,0,1,16.993,9.6,13.881,13.881,0,0,1-1.024,13.991c-1.8,2.539-4.454,4.43-8.138,2.892C564.247,808.328,564.589,785.216,564.589,785.216Z" transform="translate(-256.067 -342.665)" opacity="0.1"/>
    <path id="Path_232" data-name="Path 232" d="M564.589,785.846a16.592,16.592,0,0,1,16.993,9.6,13.881,13.881,0,0,1-1.024,13.991c-1.8,2.539-4.454,4.43-8.138,2.892C564.247,808.958,564.589,785.846,564.589,785.846Z" transform="translate(-256.067 -342.93)" fill="#fd5757"/>
    <path id="Path_233" data-name="Path 233" d="M564.589,785.846a16.592,16.592,0,0,1,16.993,9.6,13.881,13.881,0,0,1-1.024,13.991c-1.8,2.539-4.454,4.43-8.138,2.892C564.247,808.958,564.589,785.846,564.589,785.846Z" transform="translate(-256.067 -342.93)" fill="#fff" opacity="0.5"/>
    <path id="Path_234" data-name="Path 234" d="M586.16,803.13s1.579,1.458.972,1.822S586.16,803.13,586.16,803.13Z" transform="translate(-265.163 -350.26)" fill="#3f2b3b"/>
    <path id="Path_235" data-name="Path 235" d="M582.689,806.35s.862,1.9.249,2.111-.977-1.365-.977-1.365Z" transform="translate(-263.392 -351.618)" fill="#3f2b3b"/>
    <path id="Path_236" data-name="Path 236" d="M589.548,811.32s.839,2.244,0,2.244S589.548,811.32,589.548,811.32Z" transform="translate(-266.434 -353.713)" fill="#3f2b3b"/>
    <path id="Path_237" data-name="Path 237" d="M587.185,821.71s-1.689,4.315-6.085,4.008" transform="translate(-263.029 -358.093)" fill="none" stroke="#3f2b3b" stroke-miterlimit="10" stroke-width="1"/>
    <path id="Path_238" data-name="Path 238" d="M582.144,823.91a3.05,3.05,0,0,1-3.644.486" transform="translate(-261.933 -359.021)" fill="none" stroke="#3f2b3b" stroke-miterlimit="10" stroke-width="1"/>
    <path id="Path_239" data-name="Path 239" d="M553.2,842.074c.307-.058,6.073-2.551,12.019,0Z" transform="translate(-251.266 -366.196)" fill="#3f2b3b"/>
    <path id="Path_240" data-name="Path 240" d="M528.032,856.159c-5.391-.8-9.254-2.342-9.584-5.043a15.618,15.618,0,0,1-.122-3.47,7.785,7.785,0,0,1,2.059-.752c.977-.272,2.186-.087,4.737.642s2.366,3.731,2.892,7.646A3.236,3.236,0,0,1,528.032,856.159Z" transform="translate(-236.544 -368.661)" opacity="0.1"/>
    <path id="Path_241" data-name="Path 241" d="M518.125,847.546s-7.01,1.284-3.216,7.334a2.584,2.584,0,0,0,1.3,1.07c.445.156.873.156.827-.48l3.1,3.551s6.189.729,5.645-3.187-.364-6.941-2.892-7.646S519.114,847.274,518.125,847.546Z" transform="translate(-234.647 -368.938)" fill="#fd5757"/>
    <path id="Path_242" data-name="Path 242" d="M524.18,854.67s1.486,3.4,3.551.544" transform="translate(-239.031 -371.99)" fill="none" stroke="#3f2b3b" stroke-miterlimit="10" stroke-width="1"/>
    <path id="Path_243" data-name="Path 243" d="M518.28,857s.769,3.216,3.684.821" transform="translate(-236.543 -372.972)" fill="none" stroke="#3f2b3b" stroke-miterlimit="10" stroke-width="1"/>
    <path id="Path_244" data-name="Path 244" d="M600.011,846.858h0c-.231,3.2-.85,8.346-.85,8.346s-2.574.312-6.553.671a3.366,3.366,0,0,1,0-.671c.544-3.916.364-6.941,2.892-7.646C597.871,846.916,599.08,846.678,600.011,846.858Z" transform="translate(-267.874 -368.672)" opacity="0.1"/>
    <path id="Path_245" data-name="Path 245" d="M600.921,847.546s7.016,1.284,3.222,7.334a2.609,2.609,0,0,1-1.3,1.07c-.445.156-.879.156-.833-.48l-3.094,3.551s-6.195.729-5.645-3.187.364-6.941,2.892-7.646S599.949,847.274,600.921,847.546Z" transform="translate(-268.148 -368.938)" fill="#fd5757"/>
    <path id="Path_246" data-name="Path 246" d="M601.051,854.67s-1.492,3.4-3.551.544" transform="translate(-269.944 -371.99)" fill="none" stroke="#3f2b3b" stroke-miterlimit="10" stroke-width="1"/>
    <path id="Path_247" data-name="Path 247" d="M606.85,857s-.775,3.216-3.69.821" transform="translate(-272.33 -372.972)" fill="none" stroke="#3f2b3b" stroke-miterlimit="10" stroke-width="1"/>
    <path id="Path_248" data-name="Path 248" d="M544.919,854.656c-2.348-.052-4.627-.174-6.738-.382l-2.1-7.068a4.586,4.586,0,0,1-.191-1.29,4.5,4.5,0,0,1,8.994-.029C544.907,848.64,544.93,852.128,544.919,854.656Z" transform="translate(-243.968 -366.464)" opacity="0.1"/>
    <path id="Path_249" data-name="Path 249" d="M535.019,847.1l2.475,8.34s-4.211-.092-3.06,2.551c0,0,1.058,1,1.423.636,0,0-.549,1.735,1.637,1.735,0,0,2.36,1.278,3.274.364s2.828-2.279,3.013-2.822c.116-.359.081-7.334.04-12.146a4.488,4.488,0,0,0-4.494-4.454h0a4.494,4.494,0,0,0-4.309,5.8Z" transform="translate(-243.27 -366.353)" fill="#fd5757"/>
    <path id="Path_250" data-name="Path 250" d="M540.531,869.47s-1.839,1.735-.868,2.759" transform="translate(-245.44 -378.23)" fill="none" stroke="#3f2b3b" stroke-miterlimit="10" stroke-width="1"/>
    <path id="Path_251" data-name="Path 251" d="M538.76,867.56a2.5,2.5,0,0,0-1.7,2.134" transform="translate(-244.461 -377.425)" fill="none" stroke="#3f2b3b" stroke-miterlimit="10" stroke-width="1"/>
    <path id="Path_252" data-name="Path 252" d="M585.15,845.8a4.575,4.575,0,0,1-.185,1.29L583,853.785c-2.071.168-4.4.33-6.854.469,0-2.5,0-5.824.041-8.479a4.494,4.494,0,1,1,8.988.029Z" transform="translate(-260.942 -366.351)" opacity="0.1"/>
    <path id="Path_253" data-name="Path 253" d="M585.559,847.1l-2.476,8.34s4.216-.092,3.065,2.551c0,0-1.058,1-1.423.636,0,0,.544,1.735-1.643,1.735,0,0-2.36,1.278-3.274.364s-2.823-2.279-3.008-2.822c-.116-.359-.081-7.334-.041-12.146a4.488,4.488,0,0,1,4.494-4.454h0a4.494,4.494,0,0,1,4.3,5.8Z" transform="translate(-261.184 -366.353)" fill="#fd5757"/>
    <path id="Path_254" data-name="Path 254" d="M586.23,869.47s1.839,1.735.868,2.759" transform="translate(-265.192 -378.23)" fill="none" stroke="#3f2b3b" stroke-miterlimit="10" stroke-width="1"/>
    <path id="Path_255" data-name="Path 255" d="M587.63,867.56a2.5,2.5,0,0,1,1.7,2.134" transform="translate(-265.782 -377.425)" fill="none" stroke="#3f2b3b" stroke-miterlimit="10" stroke-width="1"/>
    <path id="Path_256" data-name="Path 256" d="M554.375,782.769s-8.566-.272-8.838,6.362,13.384,3.823,13.384,3.823,5.738-.769,4.737-4.8S560.569,783.133,554.375,782.769Z" transform="translate(-248.034 -341.675)" opacity="0.1"/>
    <path id="Path_257" data-name="Path 257" d="M554.375,781.509s-8.566-.272-8.838,6.362,13.384,3.823,13.384,3.823,5.738-.769,4.737-4.8S560.569,781.873,554.375,781.509Z" transform="translate(-248.034 -341.143)" opacity="0.1"/>
    <path id="Path_258" data-name="Path 258" d="M554.375,782.139s-8.566-.272-8.838,6.362,13.384,3.823,13.384,3.823,5.738-.769,4.737-4.8S560.569,782.5,554.375,782.139Z" transform="translate(-248.034 -341.409)" fill="#3f2b3b"/>
    <path id="Path_259" data-name="Path 259" d="M527.78,839.92s2.892,1.03,3.47,3" transform="translate(-240.549 -365.771)" opacity="0.1"/>
    <path id="Path_260" data-name="Path 260" d="M596.883,837.4s-2.053.862-1.909,4.459" transform="translate(-268.876 -364.709)" opacity="0.1"/>
    <ellipse id="Ellipse_26" data-name="Ellipse 26" cx="1.341" cy="2.223" rx="1.341" ry="2.223" transform="translate(286.178 487.925) rotate(-29.887)" fill="#fd5757"/>
    <ellipse id="Ellipse_27" data-name="Ellipse 27" cx="2.215" cy="1.336" rx="2.215" ry="1.336" transform="translate(326.886 488.448) rotate(-60)" fill="#fd5757"/>
    <ellipse id="Ellipse_28" data-name="Ellipse 28" cx="1.341" cy="2.223" rx="1.341" ry="2.223" transform="translate(286.178 487.925) rotate(-29.887)" fill="#fff" opacity="0.5"/>
    <ellipse id="Ellipse_29" data-name="Ellipse 29" cx="2.215" cy="1.336" rx="2.215" ry="1.336" transform="translate(326.886 488.448) rotate(-60)" fill="#fff" opacity="0.5"/>
    <ellipse id="Ellipse_30" data-name="Ellipse 30" cx="15.576" cy="2.632" rx="15.576" ry="2.632" transform="translate(95.815 411.527)" fill="#fd5757" opacity="0.1"/>
    <ellipse id="Ellipse_31" data-name="Ellipse 31" cx="15.576" cy="2.632" rx="15.576" ry="2.632" transform="translate(34.455 448.85)" fill="#fd5757" opacity="0.1"/>
    <ellipse id="Ellipse_32" data-name="Ellipse 32" cx="23.257" cy="3.933" rx="23.257" ry="3.933" transform="translate(10.556 414.159)" fill="#fd5757"/>
    <path id="Path_261" data-name="Path 261" d="M71.329,724.067a6.727,6.727,0,0,1-2.221-3.343,2.981,2.981,0,0,1,1.55-3.407c1.423-.544,2.944.44,4.095,1.434s2.475,2.134,3.985,1.926A6.067,6.067,0,0,1,76.864,715a2.314,2.314,0,0,1,.521-1.157c.787-.844,2.221-.48,3.17.185,3,2.117,3.846,6.2,3.858,9.879a18.219,18.219,0,0,0,.058-4.049c.006-1.342.382-2.892,1.527-3.6a4.628,4.628,0,0,1,2.314-.578,4.838,4.838,0,0,1,3.783,1.076c1.157,1.226.85,3.291-.15,4.627a15.123,15.123,0,0,1-3.91,3.135,8.629,8.629,0,0,0-2.8,2.666,2.729,2.729,0,0,0-.208.474h-8.45a23.389,23.389,0,0,1-5.246-3.592Z" transform="translate(-47.135 -312.407)" fill="#fd5757"/>
    <ellipse id="Ellipse_33" data-name="Ellipse 33" cx="15.576" cy="2.632" rx="15.576" ry="2.632" transform="translate(580.055 433.54)" fill="#fd5757" opacity="0.1"/>
    <path id="Path_262" data-name="Path 262" d="M1042.91,749.611s8.884-.272,11.568-2.18,13.661-4.182,14.327-1.122,13.355,15.206,3.32,15.287-23.3-1.562-25.975-3.193S1042.91,749.611,1042.91,749.611Z" transform="translate(-457.736 -325.672)" fill="#a8a8a8"/>
    <path id="Path_263" data-name="Path 263" d="M1072.3,764.031c-10.029.081-23.3-1.562-25.975-3.193-2.036-1.238-2.846-5.686-3.118-7.739h-.295s.578,7.166,3.233,8.791,15.946,3.274,25.975,3.193c2.892,0,3.9-1.053,3.84-2.58C1075.56,763.453,1074.455,764.031,1072.3,764.031Z" transform="translate(-457.736 -329.166)" opacity="0.2"/>
  </g>
</svg>
