<svg xmlns="http://www.w3.org/2000/svg" width="80.092" height="80.406" viewBox="0 0 80.092 80.406">
  <g id="recruitment" transform="translate(-1)">
    <path id="Path_264" data-name="Path 264" d="M129.637,42.4h25.127a8.647,8.647,0,0,0,8.637-8.637V8.637A8.647,8.647,0,0,0,154.764,0H129.637A8.647,8.647,0,0,0,121,8.637V33.764A8.647,8.647,0,0,0,129.637,42.4ZM131.1,20.646a2.356,2.356,0,0,1,3.331,0l3.887,3.887,11.66-11.66a2.356,2.356,0,0,1,3.331,3.331L139.98,29.529a2.355,2.355,0,0,1-3.331,0L131.1,23.977A2.355,2.355,0,0,1,131.1,20.646Z" transform="translate(-101.155)" fill="#fd5757"/>
    <circle id="Ellipse_34" data-name="Ellipse 34" cx="8.245" cy="8.245" r="8.245" transform="translate(32.801 47.427)" fill="#fd5757"/>
    <ellipse id="Ellipse_35" data-name="Ellipse 35" cx="8.329" cy="8.041" rx="8.329" ry="8.041" transform="translate(59.013 47.666)" fill="#fd5757"/>
    <circle id="Ellipse_36" data-name="Ellipse 36" cx="8.041" cy="8.041" r="8.041" transform="translate(6.744 47.666)" fill="#fd5757"/>
    <path id="Path_265" data-name="Path 265" d="M377.4,413.564a12.925,12.925,0,0,1-18.066,0,13.816,13.816,0,0,0-1.239,1.229,18.339,18.339,0,0,1,2.42,9.126v5.1H379.75a2.356,2.356,0,0,0,2.356-2.356v-2.748A13.709,13.709,0,0,0,377.4,413.564Z" transform="translate(-301.014 -348.616)" fill="#fd5757"/>
    <path id="Path_266" data-name="Path 266" d="M23.774,413.564a12.925,12.925,0,0,1-18.066,0A13.708,13.708,0,0,0,1,423.919v2.748a2.356,2.356,0,0,0,2.356,2.356H22.594v-5.1a18.338,18.338,0,0,1,2.42-9.126A13.836,13.836,0,0,0,23.774,413.564Z" transform="translate(0 -348.616)" fill="#fd5757"/>
    <path id="Path_267" data-name="Path 267" d="M191.274,413.564a12.925,12.925,0,0,1-18.066,0,13.708,13.708,0,0,0-4.708,10.355v5.1h27.483v-5.1A13.708,13.708,0,0,0,191.274,413.564Z" transform="translate(-141.195 -348.616)" fill="#fd5757"/>
  </g>
</svg>
