<svg xmlns="http://www.w3.org/2000/svg" width="60.542" height="67.808" viewBox="0 0 60.542 67.808">
  <path id="security" d="M72.016,9.491a2.216,2.216,0,0,0-1.6-1.83L43.161.082a2.215,2.215,0,0,0-1.188,0L14.72,7.661a2.216,2.216,0,0,0-1.6,1.83c-.158,1.137-3.764,27.993,5.485,41.353a43.511,43.511,0,0,0,23.443,16.9,2.223,2.223,0,0,0,1.041,0,43.509,43.509,0,0,0,23.443-16.9C75.78,37.484,72.174,10.628,72.016,9.491ZM60.142,25.17l-18.59,18.59a2.216,2.216,0,0,1-3.134,0L26.925,32.265a2.216,2.216,0,0,1,0-3.134l2.282-2.282a2.216,2.216,0,0,1,3.134,0l7.645,7.645L54.727,19.753a2.216,2.216,0,0,1,3.134,0l2.282,2.282A2.216,2.216,0,0,1,60.142,25.17Z" transform="translate(-12.296 0)" fill="#fd5757"/>
</svg>
