<svg xmlns="http://www.w3.org/2000/svg" width="77" height="77" viewBox="0 0 77 77">
  <g id="act-emp" transform="translate(-372 -145)">
    <circle id="Ellipse_46" data-name="Ellipse 46" cx="38.5" cy="38.5" r="38.5" transform="translate(372 145)" fill="#1e90ff"/>
    <g id="active-emp" transform="translate(383 156)">
      <rect id="Rectangle_86" data-name="Rectangle 86" width="56" height="56" fill="none"/>
      <g id="Group_57" data-name="Group 57" transform="translate(0 14)">
        <path id="Path_292" data-name="Path 292" d="M9.333,22.333a4.667,4.667,0,1,0-4.667-4.667A4.68,4.68,0,0,0,9.333,22.333ZM11.97,24.9a16.293,16.293,0,0,0-2.637-.233A16.218,16.218,0,0,0,2.847,26.02,4.692,4.692,0,0,0,0,30.337V34H10.5V30.243A10.5,10.5,0,0,1,11.97,24.9Zm34.7-2.567A4.667,4.667,0,1,0,42,17.667,4.68,4.68,0,0,0,46.667,22.333Zm9.333,8a4.692,4.692,0,0,0-2.847-4.317A15.862,15.862,0,0,0,44.03,24.9a10.5,10.5,0,0,1,1.47,5.343V34H56ZM37.893,23.85A24.367,24.367,0,0,0,28,21.75a24.759,24.759,0,0,0-9.893,2.1A6.972,6.972,0,0,0,14,30.243V34H42V30.243A6.972,6.972,0,0,0,37.893,23.85ZM18.83,29.333c.21-.537.3-.91,2.123-1.61a19.654,19.654,0,0,1,14.093,0c1.8.7,1.89,1.073,2.123,1.61ZM28,10.667A2.333,2.333,0,1,1,25.667,13,2.34,2.34,0,0,1,28,10.667M28,6a7,7,0,1,0,7,7,6.991,6.991,0,0,0-7-7Z" transform="translate(0 -6)" fill="#fff"/>
      </g>
    </g>
  </g>
</svg>
