<svg id="active-emp" xmlns="http://www.w3.org/2000/svg" width="37" height="37" viewBox="0 0 37 37">
  <rect id="Rectangle_86" data-name="Rectangle 86" width="37" height="37" fill="none"/>
  <g id="Group_57" data-name="Group 57" transform="translate(0 9.25)">
    <path id="Path_292" data-name="Path 292" d="M6.167,16.792a3.083,3.083,0,1,0-3.083-3.083A3.092,3.092,0,0,0,6.167,16.792Zm1.742,1.7a10.765,10.765,0,0,0-1.742-.154,10.715,10.715,0,0,0-4.286.894A3.1,3.1,0,0,0,0,22.08V24.5H6.938V22.018A6.935,6.935,0,0,1,7.909,18.487Zm22.925-1.7a3.083,3.083,0,1,0-3.083-3.083A3.092,3.092,0,0,0,30.833,16.792ZM37,22.08a3.1,3.1,0,0,0-1.881-2.852,10.481,10.481,0,0,0-6.028-.74,6.935,6.935,0,0,1,.971,3.53V24.5H37ZM25.037,17.794A16.1,16.1,0,0,0,18.5,16.406a16.358,16.358,0,0,0-6.537,1.387A4.607,4.607,0,0,0,9.25,22.018V24.5h18.5V22.018A4.607,4.607,0,0,0,25.037,17.794Zm-12.6,3.623c.139-.355.2-.6,1.4-1.064a12.986,12.986,0,0,1,9.312,0c1.187.462,1.249.709,1.4,1.064ZM18.5,9.083a1.542,1.542,0,1,1-1.542,1.542A1.546,1.546,0,0,1,18.5,9.083M18.5,6a4.625,4.625,0,1,0,4.625,4.625A4.619,4.619,0,0,0,18.5,6Z" transform="translate(0 -6)" fill="#1e90ff"/>
  </g>
</svg>
