<svg xmlns="http://www.w3.org/2000/svg" width="30" height="30" viewBox="0 0 30 30">
  <g id="bell" transform="translate(-2)">
    <path id="Path_366" data-name="Path 366" d="M31.068,21.458a8.036,8.036,0,0,1-3.568-6.5V11.419c0-4.465-3.921-8.161-9-8.78V1.269A1.4,1.4,0,0,0,17,0a1.4,1.4,0,0,0-1.5,1.269v1.37c-5.081.619-9,4.315-9,8.78v3.537a8.047,8.047,0,0,1-3.582,6.512A2.093,2.093,0,0,0,2,23.155a2.451,2.451,0,0,0,2.625,2.22h24.75A2.451,2.451,0,0,0,32,23.155,2.1,2.1,0,0,0,31.068,21.458Z" transform="translate(0)" fill="#fff"/>
    <path id="Path_367" data-name="Path 367" d="M12.574,24.469A4.343,4.343,0,0,0,16.822,21h-8.5A4.343,4.343,0,0,0,12.574,24.469Z" transform="translate(4.426 5.531)" fill="#fff"/>
  </g>
</svg>
