<svg id="clock" xmlns="http://www.w3.org/2000/svg" width="28.15" height="28.15" viewBox="0 0 28.15 28.15">
  <g id="Group_31" data-name="Group 31" transform="translate(0 0)">
    <g id="Group_30" data-name="Group 30">
      <path id="Path_285" data-name="Path 285" d="M24.028,4.122A14.075,14.075,0,0,0,4.122,24.028,14.075,14.075,0,0,0,24.028,4.122ZM14.075,25.387A11.325,11.325,0,0,1,2.763,14.075c0-.01,0-.02,0-.03s0-.005,0-.008,0-.009,0-.013A11.325,11.325,0,0,1,13.921,2.765l.039,0h.115a11.312,11.312,0,1,1,0,22.625Z" transform="translate(0 0)" fill="#fff"/>
    </g>
  </g>
  <g id="Group_33" data-name="Group 33" transform="translate(4.461 4.455)">
    <g id="Group_32" data-name="Group 32">
      <path id="Path_286" data-name="Path 286" d="M99.349,91.329a.833.833,0,0,1,0-1.666h1a9.663,9.663,0,0,0-8.879-8.634V81.9a.833.833,0,1,1-1.666,0v-.854a9.663,9.663,0,0,0-8.659,8.729h.9a.833.833,0,1,1,0,1.666h-.906a9.662,9.662,0,0,0,8.781,8.816V99.2a.833.833,0,1,1,1.666,0v1.056a9.662,9.662,0,0,0,8.79-8.931Zm-5.221-2.873-2.782,2.783a.833.833,0,0,1-1.178,0l-4.843-4.843A.833.833,0,0,1,86.5,85.217l4.255,4.255,2.194-2.194a.833.833,0,1,1,1.178,1.178Z" transform="translate(-81.142 -81.029)" fill="#fff"/>
    </g>
  </g>
</svg>
