<svg id="dashboard" xmlns="http://www.w3.org/2000/svg" width="26" height="26" viewBox="0 0 26 26">
  <path id="Path_272" data-name="Path 272" d="M10.021,0H1.9A1.9,1.9,0,0,0,0,1.9V6.771a1.9,1.9,0,0,0,1.9,1.9h8.125a1.9,1.9,0,0,0,1.9-1.9V1.9A1.9,1.9,0,0,0,10.021,0Zm0,0" fill="#fbfbfb"/>
  <path id="Path_273" data-name="Path 273" d="M10.021,213.332H1.9a1.9,1.9,0,0,0-1.9,1.9V226.6a1.9,1.9,0,0,0,1.9,1.9h8.125a1.9,1.9,0,0,0,1.9-1.9V215.228A1.9,1.9,0,0,0,10.021,213.332Zm0,0" transform="translate(0 -202.499)" fill="#fbfbfb"/>
  <path id="Path_274" data-name="Path 274" d="M287.353,341.332h-8.125a1.9,1.9,0,0,0-1.9,1.9V348.1a1.9,1.9,0,0,0,1.9,1.9h8.125a1.9,1.9,0,0,0,1.9-1.9v-4.875A1.9,1.9,0,0,0,287.353,341.332Zm0,0" transform="translate(-263.249 -323.999)" fill="#fbfbfb"/>
  <path id="Path_275" data-name="Path 275" d="M287.353,0h-8.125a1.9,1.9,0,0,0-1.9,1.9V13.271a1.9,1.9,0,0,0,1.9,1.9h8.125a1.9,1.9,0,0,0,1.9-1.9V1.9A1.9,1.9,0,0,0,287.353,0Zm0,0" transform="translate(-263.249)" fill="#fbfbfb"/>
</svg>
