<svg xmlns="http://www.w3.org/2000/svg" width="28.149" height="28.15" viewBox="0 0 28.149 28.15">
  <g id="exitr" transform="translate(-0.014)">
    <g id="Group_41" data-name="Group 41" transform="translate(0.014)">
      <g id="Group_40" data-name="Group 40">
        <path id="Path_290" data-name="Path 290" d="M310.319,153.582a1.186,1.186,0,0,0-.255-.382l-3.518-3.518a1.173,1.173,0,1,0-1.658,1.658l1.517,1.517h-6.552a1.173,1.173,0,1,0,0,2.346H306.4l-1.517,1.517a1.173,1.173,0,1,0,1.659,1.658l3.518-3.518a1.162,1.162,0,0,0,.255-.382A1.174,1.174,0,0,0,310.319,153.582Z" transform="translate(-282.259 -141.128)" fill="#fff"/>
        <path id="Path_291" data-name="Path 291" d="M19.954,16.421a1.173,1.173,0,0,0-1.173,1.173v5.865H14.089V4.692a1.174,1.174,0,0,0-.836-1.124L9.179,2.346h9.6V8.21a1.173,1.173,0,1,0,2.346,0V1.173A1.173,1.173,0,0,0,19.954,0H1.187a1.045,1.045,0,0,0-.121.022A1.158,1.158,0,0,0,.569.2C.543.212.511.213.487.232.477.239.474.252.464.259A1.162,1.162,0,0,0,.152.63a.958.958,0,0,0-.033.1A1.112,1.112,0,0,0,.027,1a.73.73,0,0,0,0,.1c0,.023-.016.045-.016.068V24.631a1.172,1.172,0,0,0,.943,1.149l11.729,2.346a1.092,1.092,0,0,0,.23.023,1.174,1.174,0,0,0,1.173-1.173V25.8h5.865a1.173,1.173,0,0,0,1.173-1.173V17.594A1.173,1.173,0,0,0,19.954,16.421Z" transform="translate(-0.014)" fill="#fff"/>
      </g>
    </g>
  </g>
</svg>
