<svg id="news" xmlns="http://www.w3.org/2000/svg" width="28.15" height="28.15" viewBox="0 0 28.15 28.15">
  <g id="Group_34" data-name="Group 34">
    <path id="Path_289" data-name="Path 289" d="M27.145,7.038H22.118V1.005A1,1,0,0,0,21.113,0H1.005A1,1,0,0,0,0,1.005V24.129A4.021,4.021,0,0,0,4.021,28.15H24.129a4.021,4.021,0,0,0,4.021-4.021V8.043A1,1,0,0,0,27.145,7.038ZM8.043,5.027h6.032a1.005,1.005,0,0,1,0,2.011H8.043a1.005,1.005,0,1,1,0-2.011Zm9.048,19.1H5.027a1.005,1.005,0,1,1,0-2.011H17.091a1.005,1.005,0,0,1,0,2.011Zm0-4.021H5.027a1.005,1.005,0,1,1,0-2.011H17.091a1.005,1.005,0,0,1,0,2.011Zm0-4.021H5.027a1.005,1.005,0,1,1,0-2.011H17.091a1.005,1.005,0,0,1,0,2.011Zm0-4.021H5.027a1.005,1.005,0,1,1,0-2.011H17.091a1.005,1.005,0,0,1,0,2.011Zm9.048,12.064a2.011,2.011,0,0,1-4.021,0V9.048h4.021v15.08Z" fill="#fff"/>
  </g>
</svg>
