<svg xmlns="http://www.w3.org/2000/svg" width="23.486" height="28.15" viewBox="0 0 23.486 28.15">
  <g id="people" transform="translate(0 0)">
    <path id="Path_287" data-name="Path 287" d="M93.812,13.56a6.56,6.56,0,0,0,4.794-1.986,6.56,6.56,0,0,0,1.986-4.794,6.561,6.561,0,0,0-1.986-4.794,6.778,6.778,0,0,0-9.588,0A6.561,6.561,0,0,0,87.032,6.78a6.56,6.56,0,0,0,1.987,4.794A6.562,6.562,0,0,0,93.812,13.56Zm0,0" transform="translate(-82.247)" fill="#fff"/>
    <path id="Path_288" data-name="Path 288" d="M23.428,255.365a16.746,16.746,0,0,0-.228-1.779,14.014,14.014,0,0,0-.437-1.788,8.834,8.834,0,0,0-.735-1.668,6.294,6.294,0,0,0-1.109-1.445,4.888,4.888,0,0,0-1.592-1,5.5,5.5,0,0,0-2.033-.368,2.064,2.064,0,0,0-1.1.467c-.33.215-.717.465-1.148.74a6.577,6.577,0,0,1-1.485.654,5.767,5.767,0,0,1-3.633,0,6.561,6.561,0,0,1-1.484-.654c-.427-.273-.814-.522-1.149-.741a2.061,2.061,0,0,0-1.1-.467,5.5,5.5,0,0,0-2.033.368,4.884,4.884,0,0,0-1.593,1,6.3,6.3,0,0,0-1.108,1.445A8.851,8.851,0,0,0,.721,251.8a14.048,14.048,0,0,0-.437,1.788,16.688,16.688,0,0,0-.228,1.779c-.037.539-.056,1.1-.056,1.662a4.674,4.674,0,0,0,1.388,3.536,5,5,0,0,0,3.577,1.3H18.52a5,5,0,0,0,3.577-1.3,4.672,4.672,0,0,0,1.388-3.537c0-.567-.019-1.127-.057-1.663Zm0,0" transform="translate(0 -233.719)" fill="#fff"/>
  </g>
</svg>
