<svg xmlns="http://www.w3.org/2000/svg" width="41" height="41" viewBox="0 0 41 41">
  <g id="Group_119" data-name="Group 119" transform="translate(-407 -43)">
    <circle id="Ellipse_105" data-name="Ellipse 105" cx="20.5" cy="20.5" r="20.5" transform="translate(407 43)" fill="#fd5757"/>
    <path id="search_1_" data-name="search (1)" d="M24.619,21.86,18.7,15.919A9.461,9.461,0,0,0,21.057,9.69,9.879,9.879,0,0,0,11.021,0,9.879,9.879,0,0,0,.984,9.69a9.879,9.879,0,0,0,10.037,9.69,10.176,10.176,0,0,0,5.75-1.753l5.961,5.986a1.343,1.343,0,0,0,1.851.035A1.235,1.235,0,0,0,24.619,21.86ZM11.021,2.528A7.3,7.3,0,0,1,18.439,9.69a7.3,7.3,0,0,1-7.418,7.162A7.3,7.3,0,0,1,3.6,9.69,7.3,7.3,0,0,1,11.021,2.528Z" transform="translate(414.516 51.5)" fill="#fff"/>
  </g>
</svg>
