<svg xmlns="http://www.w3.org/2000/svg" width="28.766" height="28.766" viewBox="0 0 28.766 28.766">
  <g id="send" transform="translate(0 0)">
    <path id="Path_368" data-name="Path 368" d="M28.173.593a2.011,2.011,0,0,0-1.89-.54l-.009,0L3.683,5.585A4.821,4.821,0,0,0,0,10.278v2.981A2.025,2.025,0,0,0,1.936,15.28l8.5,1.446a.562.562,0,0,0,.492-.157L20.939,6.556A.9.9,0,0,1,22.21,7.827L12.2,17.841a.562.562,0,0,0-.157.492l1.446,8.5a2.025,2.025,0,0,0,2.021,1.936h2.981a4.821,4.821,0,0,0,4.693-3.683L28.71,2.493l0-.009a2.01,2.01,0,0,0-.539-1.89Z" transform="translate(0 0)" fill="#fff"/>
  </g>
</svg>
