<svg id="user-default" xmlns="http://www.w3.org/2000/svg" width="60" height="60" viewBox="0 0 60 60">
  <path id="Path_372" data-name="Path 372" d="M0,0H60V60H0Z" fill="none"/>
  <path id="Path_373" data-name="Path 373" d="M27,2A25,25,0,1,0,52,27,25.009,25.009,0,0,0,27,2ZM14.675,42.7C15.75,40.45,22.3,38.25,27,38.25s11.275,2.2,12.325,4.45a19.813,19.813,0,0,1-24.65,0ZM42.9,39.075C39.325,34.725,30.65,33.25,27,33.25s-12.325,1.475-15.9,5.825a20,20,0,1,1,31.8,0ZM27,12a8.75,8.75,0,1,0,8.75,8.75A8.728,8.728,0,0,0,27,12Zm0,12.5a3.75,3.75,0,1,1,3.75-3.75A3.745,3.745,0,0,1,27,24.5Z" transform="translate(3 3)" fill="#707070"/>
</svg>
